<svg xmlns="http://www.w3.org/2000/svg" xmlns:xlink="http://www.w3.org/1999/xlink" viewBox="0 0 404.44 88.56"><defs><style>.cls-1,.cls-2,.cls-4{fill:none;}.cls-2,.cls-3,.cls-4{stroke:#211815;stroke-miterlimit:10;}.cls-3{fill:#fff;}.cls-4{stroke-width:0.5px;}.cls-5,.cls-51{fill:#211815;}.cls-6{clip-path:url(#clip-path);}.cls-7{clip-path:url(#clip-path-3);}.cls-8{clip-path:url(#clip-path-5);}.cls-9{clip-path:url(#clip-path-7);}.cls-10{clip-path:url(#clip-path-9);}.cls-11{clip-path:url(#clip-path-11);}.cls-12{clip-path:url(#clip-path-13);}.cls-13{clip-path:url(#clip-path-15);}.cls-14{clip-path:url(#clip-path-17);}.cls-15{clip-path:url(#clip-path-19);}.cls-16{clip-path:url(#clip-path-21);}.cls-17{clip-path:url(#clip-path-23);}.cls-18{clip-path:url(#clip-path-25);}.cls-19{clip-path:url(#clip-path-27);}.cls-20{clip-path:url(#clip-path-29);}.cls-21{clip-path:url(#clip-path-31);}.cls-22{clip-path:url(#clip-path-33);}.cls-23{clip-path:url(#clip-path-35);}.cls-24{clip-path:url(#clip-path-37);}.cls-25{clip-path:url(#clip-path-39);}.cls-26{clip-path:url(#clip-path-41);}.cls-27{clip-path:url(#clip-path-43);}.cls-28{clip-path:url(#clip-path-45);}.cls-29{clip-path:url(#clip-path-47);}.cls-30{clip-path:url(#clip-path-49);}.cls-31{clip-path:url(#clip-path-51);}.cls-32{clip-path:url(#clip-path-53);}.cls-33{clip-path:url(#clip-path-55);}.cls-34{clip-path:url(#clip-path-57);}.cls-35{clip-path:url(#clip-path-59);}.cls-36{clip-path:url(#clip-path-61);}.cls-37{clip-path:url(#clip-path-63);}.cls-38{clip-path:url(#clip-path-65);}.cls-39{clip-path:url(#clip-path-67);}.cls-40{clip-path:url(#clip-path-69);}.cls-41{clip-path:url(#clip-path-71);}.cls-42{clip-path:url(#clip-path-73);}.cls-43{clip-path:url(#clip-path-75);}.cls-44{clip-path:url(#clip-path-77);}.cls-45{clip-path:url(#clip-path-79);}.cls-46{clip-path:url(#clip-path-81);}.cls-47{clip-path:url(#clip-path-83);}.cls-48{clip-path:url(#clip-path-85);}.cls-49{clip-path:url(#clip-path-87);}.cls-50{clip-path:url(#clip-path-89);}.cls-51{opacity:0.64;}</style><clipPath id="clip-path"><rect class="cls-1" x="65.16" y="25.35" width="24.02" height="27.87"/></clipPath><clipPath id="clip-path-3"><rect class="cls-1" x="87.2" y="25.35" width="24.02" height="27.87"/></clipPath><clipPath id="clip-path-5"><rect class="cls-1" x="285.55" y="25.35" width="24.02" height="27.87"/></clipPath><clipPath id="clip-path-7"><rect class="cls-1" x="263.51" y="25.35" width="24.02" height="27.87"/></clipPath><clipPath id="clip-path-9"><rect class="cls-1" x="241.47" y="25.35" width="24.02" height="27.87"/></clipPath><clipPath id="clip-path-11"><rect class="cls-1" x="219.43" y="25.35" width="24.02" height="27.87"/></clipPath><clipPath id="clip-path-13"><rect class="cls-1" x="197.39" y="25.35" width="24.02" height="27.87"/></clipPath><clipPath id="clip-path-15"><rect class="cls-1" x="175.35" y="25.35" width="24.02" height="27.87"/></clipPath><clipPath id="clip-path-17"><rect class="cls-1" x="153.32" y="25.35" width="24.02" height="27.87"/></clipPath><clipPath id="clip-path-19"><rect class="cls-1" x="131.28" y="25.35" width="24.02" height="27.87"/></clipPath><clipPath id="clip-path-21"><rect class="cls-1" x="109.24" y="25.35" width="24.02" height="27.87"/></clipPath><clipPath id="clip-path-23"><rect class="cls-1" x="65.16" y="44.98" width="24.02" height="27.87"/></clipPath><clipPath id="clip-path-25"><rect class="cls-1" x="87.2" y="44.98" width="24.02" height="27.87"/></clipPath><clipPath id="clip-path-27"><rect class="cls-1" x="285.55" y="44.98" width="24.02" height="27.87"/></clipPath><clipPath id="clip-path-29"><rect class="cls-1" x="263.51" y="44.98" width="24.02" height="27.87"/></clipPath><clipPath id="clip-path-31"><rect class="cls-1" x="241.47" y="44.98" width="24.02" height="27.87"/></clipPath><clipPath id="clip-path-33"><rect class="cls-1" x="219.43" y="44.98" width="24.02" height="27.87"/></clipPath><clipPath id="clip-path-35"><rect class="cls-1" x="197.39" y="44.98" width="24.02" height="27.87"/></clipPath><clipPath id="clip-path-37"><rect class="cls-1" x="175.35" y="44.98" width="24.02" height="27.87"/></clipPath><clipPath id="clip-path-39"><rect class="cls-1" x="153.32" y="44.98" width="24.02" height="27.87"/></clipPath><clipPath id="clip-path-41"><rect class="cls-1" x="131.28" y="44.98" width="24.02" height="27.87"/></clipPath><clipPath id="clip-path-43"><rect class="cls-1" x="109.24" y="44.98" width="24.02" height="27.87"/></clipPath><clipPath id="clip-path-45"><rect class="cls-1" x="65.16" y="64.54" width="24.02" height="27.87"/></clipPath><clipPath id="clip-path-47"><rect class="cls-1" x="87.2" y="64.54" width="24.02" height="27.87"/></clipPath><clipPath id="clip-path-49"><rect class="cls-1" x="285.55" y="64.54" width="24.02" height="27.87"/></clipPath><clipPath id="clip-path-51"><rect class="cls-1" x="263.51" y="64.54" width="24.02" height="27.87"/></clipPath><clipPath id="clip-path-53"><rect class="cls-1" x="241.47" y="64.54" width="24.02" height="27.87"/></clipPath><clipPath id="clip-path-55"><rect class="cls-1" x="219.43" y="64.54" width="24.02" height="27.87"/></clipPath><clipPath id="clip-path-57"><rect class="cls-1" x="197.39" y="64.54" width="24.02" height="27.87"/></clipPath><clipPath id="clip-path-59"><rect class="cls-1" x="175.35" y="64.54" width="24.02" height="27.87"/></clipPath><clipPath id="clip-path-61"><rect class="cls-1" x="153.32" y="64.54" width="24.02" height="27.87"/></clipPath><clipPath id="clip-path-63"><rect class="cls-1" x="131.28" y="64.54" width="24.02" height="27.87"/></clipPath><clipPath id="clip-path-65"><rect class="cls-1" x="109.24" y="64.54" width="24.02" height="27.87"/></clipPath><clipPath id="clip-path-67"><rect class="cls-1" x="373.62" y="25.18" width="24.02" height="27.87"/></clipPath><clipPath id="clip-path-69"><rect class="cls-1" x="351.58" y="25.18" width="24.02" height="27.87"/></clipPath><clipPath id="clip-path-71"><rect class="cls-1" x="329.54" y="25.18" width="24.02" height="27.87"/></clipPath><clipPath id="clip-path-73"><rect class="cls-1" x="307.5" y="25.18" width="24.02" height="27.87"/></clipPath><clipPath id="clip-path-75"><rect class="cls-1" x="373.62" y="45.42" width="24.02" height="27.87"/></clipPath><clipPath id="clip-path-77"><rect class="cls-1" x="351.58" y="45.42" width="24.02" height="27.87"/></clipPath><clipPath id="clip-path-79"><rect class="cls-1" x="329.54" y="45.42" width="24.02" height="27.87"/></clipPath><clipPath id="clip-path-81"><rect class="cls-1" x="307.5" y="45.42" width="24.02" height="27.87"/></clipPath><clipPath id="clip-path-83"><rect class="cls-1" x="373.62" y="64.41" width="24.02" height="27.87"/></clipPath><clipPath id="clip-path-85"><rect class="cls-1" x="351.58" y="64.41" width="24.02" height="27.87"/></clipPath><clipPath id="clip-path-87"><rect class="cls-1" x="329.54" y="64.41" width="24.02" height="27.87"/></clipPath><clipPath id="clip-path-89"><rect class="cls-1" x="307.5" y="64.41" width="24.02" height="27.87"/></clipPath></defs><g id="レイヤー_2" data-name="レイヤー 2"><g id="レイヤー_1-2" data-name="レイヤー 1"><rect class="cls-2" x="25.75" y="0.5" width="47.3" height="18.05"/><rect class="cls-3" x="25.88" y="29.3" width="378.06" height="58.75"/><rect class="cls-4" x="60.3" y="29.3" width="343.64" height="58.75"/><rect class="cls-4" x="25.75" y="29.3" width="378.19" height="19.56"/><path class="cls-5" d="M47.06,35.23l.17-.12.88,1c-.51.4-1.22,1.09-1.7,1.53s-1.33,1.17-2.51,2.12l-.47-.6c-.21,3.92-1.1,5.1-4.23,6.31a4.33,4.33,0,0,0-.8-1.23C42,43.48,42,41.24,42,38h1.42v.7a29.39,29.39,0,0,0,2.42-2.24H38v-1.2Z"/><g id="Mark_-" data-name="Mark -"><g class="cls-6"><g class="cls-6"><path class="cls-5" d="M81.63,39.28c0,3.53-2,6.39-4.46,6.39s-4.46-2.86-4.46-6.39,2-6.39,4.46-6.39,4.46,2.86,4.46,6.39m-4.46-5.09c-1.87,0-3.39,2.3-3.39,5.14s1.52,5.15,3.39,5.15,3.39-2.31,3.39-5.15S79,34.19,77.17,34.19"/><rect class="cls-5" x="74.6" y="39.15" width="5.01" height="0.79"/></g></g></g><g id="Mark_0" data-name="Mark 0"><g class="cls-7"><g class="cls-7"><path class="cls-5" d="M103.67,39.28c0,3.53-2,6.39-4.46,6.39s-4.46-2.86-4.46-6.39,2-6.39,4.46-6.39,4.46,2.86,4.46,6.39m-4.46-5.09c-1.87,0-3.39,2.3-3.39,5.14s1.52,5.15,3.39,5.15,3.39-2.31,3.39-5.15-1.52-5.14-3.39-5.14"/><path class="cls-5" d="M96.84,39.38a5.41,5.41,0,0,1,.63-2.49,2.1,2.1,0,0,1,1.74-1,2.3,2.3,0,0,1,2,1.34,5.62,5.62,0,0,1,.39,2.06c0,.92,0,3.49-2.37,3.49-1.22,0-2.37-.94-2.37-3.38m1.22,1.95a1.35,1.35,0,0,0,1.15.63c1.46,0,1.47-1.59,1.47-2.58,0-2.1-.82-2.76-1.47-2.76-.89,0-1.17.92-1.25,1.21a6.26,6.26,0,0,0-.23,1.55,4.31,4.31,0,0,0,.33,1.95"/></g></g></g><g id="Mark_9" data-name="Mark 9"><g class="cls-8"><g class="cls-8"><path class="cls-5" d="M302,39.28c0,3.53-2,6.39-4.46,6.39s-4.47-2.86-4.47-6.39,2-6.39,4.47-6.39S302,35.75,302,39.28m-4.46-5.09c-1.88,0-3.4,2.3-3.4,5.14s1.52,5.15,3.4,5.15S301,42.17,301,39.33s-1.52-5.14-3.39-5.14"/><path class="cls-5" d="M296.43,41.15a1,1,0,0,0,1,.86,1.12,1.12,0,0,0,.91-.48,3.5,3.5,0,0,0,.47-1.9,2,2,0,0,1-1.48.63,1.94,1.94,0,0,1-1.94-2,2.12,2.12,0,0,1,2.12-2.32,2.07,2.07,0,0,1,1.81,1,5.07,5.07,0,0,1,.38,2.2c0,1.58-.29,3.58-2.33,3.58a1.94,1.94,0,0,1-1.18-.35,1.91,1.91,0,0,1-.77-1.21Zm1-1.63a1.35,1.35,0,0,0,1.11-.5,1.53,1.53,0,0,0,.25-.52,2,2,0,0,0-.61-1.63,1.32,1.32,0,0,0-.74-.26,1.36,1.36,0,0,0-1.22,1.55,1.16,1.16,0,0,0,1.21,1.36"/></g></g></g><g id="_8" data-name="8"><g class="cls-9"><g class="cls-9"><path class="cls-5" d="M280,39.28c0,3.53-2,6.39-4.46,6.39s-4.47-2.86-4.47-6.39,2-6.39,4.47-6.39S280,35.75,280,39.28m-4.46-5.09c-1.88,0-3.39,2.3-3.39,5.14s1.51,5.15,3.39,5.15,3.39-2.31,3.39-5.15-1.52-5.14-3.39-5.14"/><path class="cls-5" d="M277.87,41c0,1.11-.87,1.82-2.37,1.82-1.12,0-2.31-.55-2.31-1.84a2.24,2.24,0,0,1,1.4-1.84,1.76,1.76,0,0,1-1.18-1.57c0-1.06,1-1.62,2-1.62s2.06.55,2.06,1.65a1.76,1.76,0,0,1-1.19,1.54c.93.46,1.55,1,1.55,1.86M277,41c0-.7-.8-1.12-1.55-1.47-.83.44-1.41.78-1.41,1.52s.72,1,1.44,1S277,41.7,277,41m-2.36-4.06a.85.85,0,0,0-.31.69c0,.74.89,1.08,1.25,1.2.52-.24,1-.64,1-1.21a1.07,1.07,0,0,0-.18-.58,1.26,1.26,0,0,0-1.05-.42,1.85,1.85,0,0,0-.75.32"/></g></g></g><g id="Mark_7" data-name="Mark 7"><g class="cls-10"><g class="cls-10"><path class="cls-5" d="M257.94,39.28c0,3.53-2,6.39-4.46,6.39S249,42.81,249,39.28s2-6.39,4.46-6.39,4.46,2.86,4.46,6.39m-4.46-5.09c-1.87,0-3.39,2.3-3.39,5.14s1.52,5.15,3.39,5.15,3.39-2.31,3.39-5.15-1.52-5.14-3.39-5.14"/><path class="cls-5" d="M251.53,36.09h4.19v.78a8.28,8.28,0,0,0-2.14,5.7h-1a9.39,9.39,0,0,1,2.09-5.67h-3.17Z"/></g></g></g><g id="Mark_6" data-name="Mark 6"><g class="cls-11"><g class="cls-11"><path class="cls-5" d="M235.9,39.28c0,3.53-2,6.39-4.46,6.39S227,42.81,227,39.28s2-6.39,4.46-6.39,4.46,2.86,4.46,6.39m-4.46-5.09c-1.87,0-3.39,2.3-3.39,5.14s1.52,5.15,3.39,5.15,3.39-2.31,3.39-5.15-1.52-5.14-3.39-5.14"/><path class="cls-5" d="M232.45,37.47a.91.91,0,0,0-.93-.87c-1.3,0-1.43,1.69-1.48,2.36a2.28,2.28,0,0,1,1.53-.58,1.87,1.87,0,0,1,1.91,2.06,2.05,2.05,0,0,1-2.08,2.3,2,2,0,0,1-1.75-.93,4.6,4.6,0,0,1-.5-2.47,4.16,4.16,0,0,1,.68-2.63,2.11,2.11,0,0,1,1.65-.84,2.49,2.49,0,0,1,.89.17,1.81,1.81,0,0,1,1.09,1.43ZM231.36,42a1.25,1.25,0,0,0,1.24-1.43c0-.29,0-1.44-1.19-1.44a1.73,1.73,0,0,0-1.37.72c0,1.11.31,2.15,1.32,2.15"/></g></g></g><g id="Mark_5" data-name="Mark 5"><g class="cls-12"><g class="cls-12"><path class="cls-5" d="M213.87,39.28c0,3.53-2,6.39-4.47,6.39s-4.46-2.86-4.46-6.39,2-6.39,4.46-6.39,4.47,2.86,4.47,6.39m-4.47-5.09c-1.87,0-3.39,2.3-3.39,5.14s1.52,5.15,3.39,5.15,3.39-2.31,3.39-5.15-1.51-5.14-3.39-5.14"/><path class="cls-5" d="M207.78,36h3.46v.77h-2.75l-.2,2a2.23,2.23,0,0,1,1.27-.37,2,2,0,0,1,2.07,2.14,2.12,2.12,0,0,1-2.19,2.22A2.22,2.22,0,0,1,207.17,41h.94a1.25,1.25,0,0,0,1.26,1.13,1.35,1.35,0,0,0,1.36-1.44,1.4,1.4,0,0,0-1.39-1.56,1.25,1.25,0,0,0-1.14.65l-.78-.29Z"/></g></g></g><g id="Mark_4" data-name="Mark 4"><g class="cls-13"><g class="cls-13"><path class="cls-5" d="M191.83,39.28c0,3.53-2,6.39-4.47,6.39s-4.46-2.86-4.46-6.39,2-6.39,4.46-6.39,4.47,2.86,4.47,6.39m-4.47-5.09c-1.87,0-3.39,2.3-3.39,5.14s1.52,5.15,3.39,5.15,3.4-2.31,3.4-5.15-1.52-5.14-3.4-5.14"/><path class="cls-5" d="M188.11,36h.69v4.41h.83v.76h-.83v1.45H188V41.21h-3v-.93ZM188,37.5l-2.19,3H188Z"/></g></g></g><g id="Mark_3" data-name="Mark 3"><g class="cls-14"><g class="cls-14"><path class="cls-5" d="M169.79,39.28c0,3.53-2,6.39-4.46,6.39s-4.47-2.86-4.47-6.39,2-6.39,4.47-6.39,4.46,2.86,4.46,6.39m-4.46-5.09c-1.88,0-3.4,2.3-3.4,5.14s1.52,5.15,3.4,5.15,3.39-2.31,3.39-5.15-1.52-5.14-3.39-5.14"/><path class="cls-5" d="M164.41,38.81c1.43,0,1.57-.05,1.82-.45a1.36,1.36,0,0,0,.22-.69,1,1,0,0,0-1.07-1.07,1.06,1.06,0,0,0-1,1h-.87A1.82,1.82,0,0,1,165.42,36a1.78,1.78,0,0,1,2,1.66,1.58,1.58,0,0,1-1,1.49,1.83,1.83,0,0,1,1.18,1.74,2,2,0,0,1-2.12,1.94,2.47,2.47,0,0,1-1.55-.54,2.41,2.41,0,0,1-.68-1.44h1a1.21,1.21,0,0,0,.75,1.11,1.17,1.17,0,0,0,.46.1,1.2,1.2,0,0,0,1.22-1.25,1.23,1.23,0,0,0-1-1.27,9.16,9.16,0,0,0-1.25,0Z"/></g></g></g><g id="Mark_2" data-name="Mark 2"><g class="cls-15"><g class="cls-15"><path class="cls-5" d="M147.75,39.28c0,3.53-2,6.39-4.46,6.39s-4.47-2.86-4.47-6.39,2-6.39,4.47-6.39,4.46,2.86,4.46,6.39m-4.46-5.09c-1.88,0-3.4,2.3-3.4,5.14s1.52,5.15,3.4,5.15,3.39-2.31,3.39-5.15-1.52-5.14-3.39-5.14"/><path class="cls-5" d="M141,38.09a2.54,2.54,0,0,1,.67-1.56,2.18,2.18,0,0,1,1.52-.59,1.92,1.92,0,0,1,2.09,1.85,2.69,2.69,0,0,1-1.3,2.09c-1.43,1.16-1.63,1.32-1.85,2h3.22v.76H141.1a3.71,3.71,0,0,1,1.68-2.79c1-.89,1.59-1.36,1.59-2.09a1.11,1.11,0,0,0-1.12-1.13,1.24,1.24,0,0,0-.88.3,1.42,1.42,0,0,0-.4,1.17Z"/></g></g></g><g id="Mark_1" data-name="Mark 1"><g class="cls-16"><g class="cls-16"><path class="cls-5" d="M125.71,39.28c0,3.53-2,6.39-4.46,6.39s-4.47-2.86-4.47-6.39,2-6.39,4.47-6.39,4.46,2.86,4.46,6.39m-4.46-5.09c-1.88,0-3.39,2.3-3.39,5.14s1.51,5.15,3.39,5.15,3.39-2.31,3.39-5.15-1.52-5.14-3.39-5.14"/><path class="cls-5" d="M119.68,36.55A1.69,1.69,0,0,0,121,36h.77v6.58h-.89V37a2.88,2.88,0,0,1-1.23.33Z"/></g></g></g><rect class="cls-4" x="25.75" y="48.94" width="378.19" height="19.56"/><path class="cls-5" d="M47.28,54.93c-1.76,1.78-2,2-3,2.94v7.25H42.88V59a21.79,21.79,0,0,1-4.71,2.86,3.39,3.39,0,0,0-.71-1.22A21.44,21.44,0,0,0,46.12,54Z"/><g id="Mark_--2" data-name="Mark -"><g class="cls-17"><g class="cls-17"><path class="cls-5" d="M81.63,58.92c0,3.53-2,6.39-4.46,6.39s-4.46-2.86-4.46-6.39,2-6.39,4.46-6.39,4.46,2.86,4.46,6.39m-4.46-5.1c-1.87,0-3.39,2.3-3.39,5.15s1.52,5.14,3.39,5.14,3.39-2.3,3.39-5.14S79,53.82,77.17,53.82"/><rect class="cls-5" x="74.6" y="58.78" width="5.01" height="0.79"/></g></g></g><g id="Mark_0-2" data-name="Mark 0"><g class="cls-18"><g class="cls-18"><path class="cls-5" d="M103.67,58.92c0,3.53-2,6.39-4.46,6.39s-4.46-2.86-4.46-6.39,2-6.39,4.46-6.39,4.46,2.86,4.46,6.39m-4.46-5.1c-1.87,0-3.39,2.31-3.39,5.15s1.52,5.14,3.39,5.14,3.39-2.3,3.39-5.14-1.52-5.15-3.39-5.15"/><path class="cls-5" d="M96.84,59a5.38,5.38,0,0,1,.63-2.48,2.1,2.1,0,0,1,1.74-1,2.28,2.28,0,0,1,2,1.33,5.67,5.67,0,0,1,.39,2.07c0,.92,0,3.48-2.37,3.48-1.22,0-2.37-.93-2.37-3.38m1.22,2a1.33,1.33,0,0,0,1.15.64c1.46,0,1.47-1.6,1.47-2.59,0-2.1-.82-2.75-1.47-2.75-.89,0-1.17.91-1.25,1.2A6.31,6.31,0,0,0,97.73,59a4.31,4.31,0,0,0,.33,2"/></g></g></g><g id="Mark_9-2" data-name="Mark 9"><g class="cls-19"><g class="cls-19"><path class="cls-5" d="M302,58.92c0,3.53-2,6.39-4.46,6.39s-4.47-2.86-4.47-6.39,2-6.39,4.47-6.39S302,55.39,302,58.92m-4.46-5.1c-1.88,0-3.4,2.31-3.4,5.15s1.52,5.14,3.4,5.14S301,61.81,301,59s-1.52-5.15-3.39-5.15"/><path class="cls-5" d="M296.43,60.79a1,1,0,0,0,1,.86,1.12,1.12,0,0,0,.91-.48,3.57,3.57,0,0,0,.47-1.91,2,2,0,0,1-1.48.64,2,2,0,0,1-1.94-2,2.11,2.11,0,0,1,2.12-2.31,2.07,2.07,0,0,1,1.81,1,5,5,0,0,1,.38,2.19c0,1.59-.29,3.59-2.33,3.59A2,2,0,0,1,296.2,62a2,2,0,0,1-.77-1.21Zm1-1.64a1.33,1.33,0,0,0,1.11-.49,1.73,1.73,0,0,0,.25-.53,2,2,0,0,0-.61-1.62,1.32,1.32,0,0,0-.74-.26,1.36,1.36,0,0,0-1.22,1.55,1.16,1.16,0,0,0,1.21,1.35"/></g></g></g><g id="_8-2" data-name="8"><g class="cls-20"><g class="cls-20"><path class="cls-5" d="M280,58.92c0,3.53-2,6.39-4.46,6.39s-4.47-2.86-4.47-6.39,2-6.39,4.47-6.39S280,55.39,280,58.92m-4.46-5.1c-1.88,0-3.39,2.31-3.39,5.15s1.51,5.14,3.39,5.14,3.39-2.3,3.39-5.14-1.52-5.15-3.39-5.15"/><path class="cls-5" d="M277.87,60.62c0,1.11-.87,1.81-2.37,1.81-1.12,0-2.31-.54-2.31-1.83a2.26,2.26,0,0,1,1.4-1.85,1.73,1.73,0,0,1-1.18-1.57c0-1,1-1.61,2-1.61s2.06.55,2.06,1.65c0,.86-.64,1.24-1.19,1.53.93.47,1.55,1,1.55,1.87m-.88,0c0-.7-.8-1.13-1.55-1.48-.83.44-1.41.79-1.41,1.53s.72,1,1.44,1S277,61.34,277,60.6m-2.36-4.06a.85.85,0,0,0-.31.69c0,.74.89,1.07,1.25,1.19.52-.24,1-.63,1-1.21a1,1,0,0,0-.18-.57,1.26,1.26,0,0,0-1.05-.42,1.85,1.85,0,0,0-.75.32"/></g></g></g><g id="Mark_7-2" data-name="Mark 7"><g class="cls-21"><g class="cls-21"><path class="cls-5" d="M257.94,58.92c0,3.53-2,6.39-4.46,6.39S249,62.45,249,58.92s2-6.39,4.46-6.39,4.46,2.86,4.46,6.39m-4.46-5.1c-1.87,0-3.39,2.31-3.39,5.15s1.52,5.14,3.39,5.14,3.39-2.3,3.39-5.14-1.52-5.15-3.39-5.15"/><path class="cls-5" d="M251.53,55.72h4.19v.79a8.28,8.28,0,0,0-2.14,5.7h-1a9.37,9.37,0,0,1,2.09-5.67h-3.17Z"/></g></g></g><g id="Mark_6-2" data-name="Mark 6"><g class="cls-22"><g class="cls-22"><path class="cls-5" d="M235.9,58.92c0,3.53-2,6.39-4.46,6.39S227,62.45,227,58.92s2-6.39,4.46-6.39,4.46,2.86,4.46,6.39m-4.46-5.1c-1.87,0-3.39,2.31-3.39,5.15s1.52,5.14,3.39,5.14,3.39-2.3,3.39-5.14-1.52-5.15-3.39-5.15"/><path class="cls-5" d="M232.45,57.11a.91.91,0,0,0-.93-.87c-1.3,0-1.43,1.68-1.48,2.35a2.33,2.33,0,0,1,1.53-.58,1.88,1.88,0,0,1,1.91,2.07,2.1,2.1,0,0,1-3.83,1.37,4.6,4.6,0,0,1-.5-2.47,4.18,4.18,0,0,1,.68-2.64,2.14,2.14,0,0,1,1.65-.84,2.52,2.52,0,0,1,.89.18,1.81,1.81,0,0,1,1.09,1.43Zm-1.09,4.52a1.26,1.26,0,0,0,1.24-1.43c0-.29,0-1.45-1.19-1.45a1.73,1.73,0,0,0-1.37.72c0,1.12.31,2.16,1.32,2.16"/></g></g></g><g id="Mark_5-2" data-name="Mark 5"><g class="cls-23"><g class="cls-23"><path class="cls-5" d="M213.87,58.92c0,3.53-2,6.39-4.47,6.39s-4.46-2.86-4.46-6.39,2-6.39,4.46-6.39,4.47,2.86,4.47,6.39m-4.47-5.1c-1.87,0-3.39,2.31-3.39,5.15s1.52,5.14,3.39,5.14,3.39-2.3,3.39-5.14-1.51-5.15-3.39-5.15"/><path class="cls-5" d="M207.78,55.65h3.46v.77h-2.75l-.2,2a2.31,2.31,0,0,1,1.27-.37,2,2,0,0,1,2.07,2.15,2.12,2.12,0,0,1-2.19,2.21,2.21,2.21,0,0,1-2.27-1.83h.94c.25,1.05.95,1.13,1.26,1.13a1.34,1.34,0,0,0,1.36-1.44,1.4,1.4,0,0,0-1.39-1.56,1.26,1.26,0,0,0-1.14.66l-.78-.29Z"/></g></g></g><g id="Mark_4-2" data-name="Mark 4"><g class="cls-24"><g class="cls-24"><path class="cls-5" d="M191.83,58.92c0,3.53-2,6.39-4.47,6.39s-4.46-2.86-4.46-6.39,2-6.39,4.46-6.39,4.47,2.86,4.47,6.39m-4.47-5.1c-1.87,0-3.39,2.31-3.39,5.15s1.52,5.14,3.39,5.14,3.4-2.3,3.4-5.14-1.52-5.15-3.4-5.15"/><path class="cls-5" d="M188.11,55.68h.69v4.41h.83v.75h-.83V62.3H188V60.84h-3v-.92ZM188,57.13l-2.19,3H188Z"/></g></g></g><g id="Mark_3-2" data-name="Mark 3"><g class="cls-25"><g class="cls-25"><path class="cls-5" d="M169.79,58.92c0,3.53-2,6.39-4.46,6.39s-4.47-2.86-4.47-6.39,2-6.39,4.47-6.39,4.46,2.86,4.46,6.39m-4.46-5.1c-1.88,0-3.4,2.31-3.4,5.15s1.52,5.14,3.4,5.14,3.39-2.3,3.39-5.14-1.52-5.15-3.39-5.15"/><path class="cls-5" d="M164.41,58.44c1.43,0,1.57,0,1.82-.45a1.33,1.33,0,0,0,.22-.69,1,1,0,0,0-1.07-1.06,1.05,1.05,0,0,0-1,1h-.87a1.83,1.83,0,0,1,1.91-1.68,1.78,1.78,0,0,1,2,1.67,1.56,1.56,0,0,1-1,1.48,1.83,1.83,0,0,1,1.18,1.75,2,2,0,0,1-2.12,1.93,2.07,2.07,0,0,1-2.23-2h1a1.19,1.19,0,0,0,.75,1.11,1,1,0,0,0,.46.1,1.2,1.2,0,0,0,1.22-1.25,1.23,1.23,0,0,0-1-1.27,9.16,9.16,0,0,0-1.25,0Z"/></g></g></g><g id="Mark_2-2" data-name="Mark 2"><g class="cls-26"><g class="cls-26"><path class="cls-5" d="M147.75,58.92c0,3.53-2,6.39-4.46,6.39s-4.47-2.86-4.47-6.39,2-6.39,4.47-6.39,4.46,2.86,4.46,6.39m-4.46-5.1c-1.88,0-3.4,2.31-3.4,5.15s1.52,5.14,3.4,5.14,3.39-2.3,3.39-5.14-1.52-5.15-3.39-5.15"/><path class="cls-5" d="M141,57.72a2.58,2.58,0,0,1,.67-1.56,2.23,2.23,0,0,1,1.52-.59,1.92,1.92,0,0,1,2.09,1.85,2.7,2.7,0,0,1-1.3,2.1c-1.43,1.15-1.63,1.31-1.85,2h3.22v.75H141.1a3.7,3.7,0,0,1,1.68-2.78c1-.9,1.59-1.36,1.59-2.09a1.11,1.11,0,0,0-1.12-1.13,1.24,1.24,0,0,0-.88.3,1.41,1.41,0,0,0-.4,1.16Z"/></g></g></g><g id="Mark_1-2" data-name="Mark 1"><g class="cls-27"><g class="cls-27"><path class="cls-5" d="M125.71,58.92c0,3.53-2,6.39-4.46,6.39s-4.47-2.86-4.47-6.39,2-6.39,4.47-6.39,4.46,2.86,4.46,6.39m-4.46-5.1c-1.88,0-3.39,2.31-3.39,5.15s1.51,5.14,3.39,5.14,3.39-2.3,3.39-5.14-1.52-5.15-3.39-5.15"/><path class="cls-5" d="M119.68,56.18a1.66,1.66,0,0,0,1.35-.54h.77v6.58h-.89V56.63a3,3,0,0,1-1.23.34Z"/></g></g></g><rect class="cls-4" x="25.75" y="68.49" width="378.19" height="19.56"/><path class="cls-5" d="M42.24,73.4h1.35v2.27h3.83c-.11,4.69-1.21,7.45-6.85,9.13a3.6,3.6,0,0,0-.65-1.26c5-1.09,6-3.53,6.06-6.77H39.8v3.28H38.48V75.67h3.76Z"/><g id="Mark_--3" data-name="Mark -"><g class="cls-28"><g class="cls-28"><path class="cls-5" d="M81.63,78.47c0,3.53-2,6.39-4.46,6.39S72.71,82,72.71,78.47s2-6.39,4.46-6.39,4.46,2.86,4.46,6.39m-4.46-5.09c-1.87,0-3.39,2.3-3.39,5.14s1.52,5.15,3.39,5.15,3.39-2.31,3.39-5.15S79,73.38,77.17,73.38"/><rect class="cls-5" x="74.6" y="78.34" width="5.01" height="0.79"/></g></g></g><g id="Mark_0-3" data-name="Mark 0"><g class="cls-29"><g class="cls-29"><path class="cls-5" d="M103.67,78.47c0,3.53-2,6.39-4.46,6.39S94.75,82,94.75,78.47s2-6.39,4.46-6.39,4.46,2.86,4.46,6.39m-4.46-5.09c-1.87,0-3.39,2.3-3.39,5.14s1.52,5.15,3.39,5.15,3.39-2.31,3.39-5.15-1.52-5.14-3.39-5.14"/><path class="cls-5" d="M96.84,78.57a5.41,5.41,0,0,1,.63-2.49,2.1,2.1,0,0,1,1.74-1,2.3,2.3,0,0,1,2,1.34,5.62,5.62,0,0,1,.39,2.06c0,.92,0,3.49-2.37,3.49C98,82,96.84,81,96.84,78.57m1.22,2a1.35,1.35,0,0,0,1.15.63c1.46,0,1.47-1.59,1.47-2.58,0-2.11-.82-2.76-1.47-2.76-.89,0-1.17.92-1.25,1.21a6.26,6.26,0,0,0-.23,1.55,4.33,4.33,0,0,0,.33,2"/></g></g></g><g id="Mark_9-3" data-name="Mark 9"><g class="cls-30"><g class="cls-30"><path class="cls-5" d="M302,78.47c0,3.53-2,6.39-4.46,6.39s-4.47-2.86-4.47-6.39,2-6.39,4.47-6.39S302,74.94,302,78.47m-4.46-5.09c-1.88,0-3.4,2.3-3.4,5.14s1.52,5.15,3.4,5.15S301,81.36,301,78.52s-1.52-5.14-3.39-5.14"/><path class="cls-5" d="M296.43,80.34a1,1,0,0,0,1,.86,1.12,1.12,0,0,0,.91-.48,3.53,3.53,0,0,0,.47-1.9,2,2,0,0,1-1.48.63,1.94,1.94,0,0,1-1.94-2,2.12,2.12,0,0,1,2.12-2.32,2.07,2.07,0,0,1,1.81,1,5.05,5.05,0,0,1,.38,2.19c0,1.59-.29,3.59-2.33,3.59a1.94,1.94,0,0,1-1.18-.35,1.91,1.91,0,0,1-.77-1.21Zm1-1.63a1.35,1.35,0,0,0,1.11-.5,1.53,1.53,0,0,0,.25-.52,2,2,0,0,0-.61-1.63,1.32,1.32,0,0,0-.74-.26,1.36,1.36,0,0,0-1.22,1.55,1.16,1.16,0,0,0,1.21,1.36"/></g></g></g><g id="_8-3" data-name="8"><g class="cls-31"><g class="cls-31"><path class="cls-5" d="M280,78.47c0,3.53-2,6.39-4.46,6.39s-4.47-2.86-4.47-6.39,2-6.39,4.47-6.39S280,74.94,280,78.47m-4.46-5.09c-1.88,0-3.39,2.3-3.39,5.14s1.51,5.15,3.39,5.15,3.39-2.31,3.39-5.15-1.52-5.14-3.39-5.14"/><path class="cls-5" d="M277.87,80.17c0,1.11-.87,1.81-2.37,1.81-1.12,0-2.31-.54-2.31-1.83a2.27,2.27,0,0,1,1.4-1.85,1.73,1.73,0,0,1-1.18-1.56c0-1.06,1-1.62,2-1.62s2.06.55,2.06,1.65a1.73,1.73,0,0,1-1.19,1.53c.93.47,1.55,1,1.55,1.87m-.88,0c0-.7-.8-1.12-1.55-1.47-.83.44-1.41.78-1.41,1.52s.72,1,1.44,1,1.52-.35,1.52-1.09m-2.36-4.06a.85.85,0,0,0-.31.69c0,.74.89,1.08,1.25,1.2.52-.24,1-.64,1-1.22a1.06,1.06,0,0,0-.18-.57,1.26,1.26,0,0,0-1.05-.42,1.85,1.85,0,0,0-.75.32"/></g></g></g><g id="Mark_7-3" data-name="Mark 7"><g class="cls-32"><g class="cls-32"><path class="cls-5" d="M257.94,78.47c0,3.53-2,6.39-4.46,6.39S249,82,249,78.47s2-6.39,4.46-6.39,4.46,2.86,4.46,6.39m-4.46-5.09c-1.87,0-3.39,2.3-3.39,5.14s1.52,5.15,3.39,5.15,3.39-2.31,3.39-5.15-1.52-5.14-3.39-5.14"/><path class="cls-5" d="M251.53,75.28h4.19v.78a8.28,8.28,0,0,0-2.14,5.7h-1a9.39,9.39,0,0,1,2.09-5.67h-3.17Z"/></g></g></g><g id="Mark_6-3" data-name="Mark 6"><g class="cls-33"><g class="cls-33"><path class="cls-5" d="M235.9,78.47c0,3.53-2,6.39-4.46,6.39S227,82,227,78.47s2-6.39,4.46-6.39,4.46,2.86,4.46,6.39m-4.46-5.09c-1.87,0-3.39,2.3-3.39,5.14s1.52,5.15,3.39,5.15,3.39-2.31,3.39-5.15-1.52-5.14-3.39-5.14"/><path class="cls-5" d="M232.45,76.66a.91.91,0,0,0-.93-.87c-1.3,0-1.43,1.68-1.48,2.36a2.28,2.28,0,0,1,1.53-.58,1.87,1.87,0,0,1,1.91,2.06,2.05,2.05,0,0,1-2.08,2.3,2,2,0,0,1-1.75-.93,4.6,4.6,0,0,1-.5-2.47,4.16,4.16,0,0,1,.68-2.63,2.11,2.11,0,0,1,1.65-.84,2.49,2.49,0,0,1,.89.17,1.81,1.81,0,0,1,1.09,1.43Zm-1.09,4.52a1.26,1.26,0,0,0,1.24-1.43c0-.29,0-1.45-1.19-1.45A1.76,1.76,0,0,0,230,79c0,1.12.31,2.16,1.32,2.16"/></g></g></g><g id="Mark_5-3" data-name="Mark 5"><g class="cls-34"><g class="cls-34"><path class="cls-5" d="M213.87,78.47c0,3.53-2,6.39-4.47,6.39s-4.46-2.86-4.46-6.39,2-6.39,4.46-6.39,4.47,2.86,4.47,6.39m-4.47-5.09c-1.87,0-3.39,2.3-3.39,5.14s1.52,5.15,3.39,5.15,3.39-2.31,3.39-5.15-1.51-5.14-3.39-5.14"/><path class="cls-5" d="M207.78,75.2h3.46V76h-2.75l-.2,2a2.23,2.23,0,0,1,1.27-.38,2,2,0,0,1,2.07,2.15A2.12,2.12,0,0,1,209.44,82a2.22,2.22,0,0,1-2.27-1.83h.94a1.24,1.24,0,0,0,1.26,1.12,1.34,1.34,0,0,0,1.36-1.43,1.4,1.4,0,0,0-1.39-1.56,1.25,1.25,0,0,0-1.14.65l-.78-.29Z"/></g></g></g><g id="Mark_4-3" data-name="Mark 4"><g class="cls-35"><g class="cls-35"><path class="cls-5" d="M191.83,78.47c0,3.53-2,6.39-4.47,6.39S182.9,82,182.9,78.47s2-6.39,4.46-6.39,4.47,2.86,4.47,6.39m-4.47-5.09c-1.87,0-3.39,2.3-3.39,5.14s1.52,5.15,3.39,5.15,3.4-2.31,3.4-5.15-1.52-5.14-3.4-5.14"/><path class="cls-5" d="M188.11,75.23h.69v4.41h.83v.76h-.83v1.45H188V80.4h-3v-.93ZM188,76.69l-2.19,3H188Z"/></g></g></g><g id="Mark_3-3" data-name="Mark 3"><g class="cls-36"><g class="cls-36"><path class="cls-5" d="M169.79,78.47c0,3.53-2,6.39-4.46,6.39s-4.47-2.86-4.47-6.39,2-6.39,4.47-6.39,4.46,2.86,4.46,6.39m-4.46-5.09c-1.88,0-3.4,2.3-3.4,5.14s1.52,5.15,3.4,5.15,3.39-2.31,3.39-5.15-1.52-5.14-3.39-5.14"/><path class="cls-5" d="M164.41,78c1.43,0,1.57,0,1.82-.45a1.39,1.39,0,0,0,.22-.69,1,1,0,0,0-1.07-1.07,1.05,1.05,0,0,0-1,1h-.87a1.82,1.82,0,0,1,1.91-1.67,1.78,1.78,0,0,1,2,1.66,1.58,1.58,0,0,1-1,1.49A1.83,1.83,0,0,1,167.59,80,2,2,0,0,1,165.47,82a2.47,2.47,0,0,1-1.55-.54,2.41,2.41,0,0,1-.68-1.44h1A1.21,1.21,0,0,0,165,81.1a1.17,1.17,0,0,0,.46.1A1.2,1.2,0,0,0,166.65,80a1.23,1.23,0,0,0-1-1.27,9.16,9.16,0,0,0-1.25,0Z"/></g></g></g><g id="Mark_2-3" data-name="Mark 2"><g class="cls-37"><g class="cls-37"><path class="cls-5" d="M147.75,78.47c0,3.53-2,6.39-4.46,6.39s-4.47-2.86-4.47-6.39,2-6.39,4.47-6.39,4.46,2.86,4.46,6.39m-4.46-5.09c-1.88,0-3.4,2.3-3.4,5.14s1.52,5.15,3.4,5.15,3.39-2.31,3.39-5.15-1.52-5.14-3.39-5.14"/><path class="cls-5" d="M141,77.28a2.54,2.54,0,0,1,.67-1.56,2.18,2.18,0,0,1,1.52-.59A1.92,1.92,0,0,1,145.28,77a2.69,2.69,0,0,1-1.3,2.09c-1.43,1.16-1.63,1.32-1.85,2h3.22v.76H141.1A3.7,3.7,0,0,1,142.78,79c1-.89,1.59-1.36,1.59-2.09a1.11,1.11,0,0,0-1.12-1.13,1.24,1.24,0,0,0-.88.3,1.42,1.42,0,0,0-.4,1.17Z"/></g></g></g><g id="Mark_1-3" data-name="Mark 1"><g class="cls-38"><g class="cls-38"><path class="cls-5" d="M125.71,78.47c0,3.53-2,6.39-4.46,6.39s-4.47-2.86-4.47-6.39,2-6.39,4.47-6.39,4.46,2.86,4.46,6.39m-4.46-5.09c-1.88,0-3.39,2.3-3.39,5.14s1.51,5.15,3.39,5.15,3.39-2.31,3.39-5.15-1.52-5.14-3.39-5.14"/><path class="cls-5" d="M119.68,75.74a1.66,1.66,0,0,0,1.35-.55h.77v6.59h-.89V76.19a3,3,0,0,1-1.23.33Z"/></g></g></g><g id="Mark_d" data-name="Mark d"><g class="cls-39"><g class="cls-39"><path class="cls-5" d="M390.09,39.12c0,3.53-2,6.39-4.47,6.39s-4.46-2.86-4.46-6.39,2-6.39,4.46-6.39,4.47,2.86,4.47,6.39M385.62,34c-1.87,0-3.39,2.31-3.39,5.15s1.52,5.14,3.39,5.14S389,42,389,39.17,387.5,34,385.62,34"/><path class="cls-5" d="M386.71,35.7h.81v6.7h-.81v-.79a2.1,2.1,0,0,1-1.6.9c-1.08,0-2.21-.72-2.21-2.62a2.32,2.32,0,0,1,2.24-2.46,1.89,1.89,0,0,1,1.57.84Zm0,3.61a1.71,1.71,0,0,0-1.48-1.17,1.45,1.45,0,0,0-.94.35,1.82,1.82,0,0,0-.51,1.42c0,.94.43,1.86,1.39,1.86.66,0,1.1-.46,1.54-1.12Z"/></g></g></g><g id="Mark_c" data-name="Mark c"><g class="cls-40"><g class="cls-40"><path class="cls-5" d="M368.05,39.12c0,3.53-2,6.39-4.46,6.39s-4.47-2.86-4.47-6.39,2-6.39,4.47-6.39,4.46,2.86,4.46,6.39M363.59,34c-1.88,0-3.4,2.31-3.4,5.15s1.52,5.14,3.4,5.14S367,42,367,39.17,365.46,34,363.59,34"/><path class="cls-5" d="M365.57,40.13a1.83,1.83,0,0,1-2,1.56c-.36,0-2.28-.1-2.28-2.74a3.11,3.11,0,0,1,.44-1.43,2.16,2.16,0,0,1,1.77-.91,1.94,1.94,0,0,1,2.08,1.45h-1a1,1,0,0,0-1.13-.8,1.21,1.21,0,0,0-1.09.67,3.21,3.21,0,0,0-.26,1c0,1.38.66,2.06,1.42,2.06a1,1,0,0,0,1.11-.88Z"/></g></g></g><g id="Mark_b" data-name="Mark b"><g class="cls-41"><g class="cls-41"><path class="cls-5" d="M346,39.12c0,3.53-2,6.39-4.46,6.39s-4.47-2.86-4.47-6.39,2-6.39,4.47-6.39S346,35.59,346,39.12M341.55,34c-1.88,0-3.4,2.31-3.4,5.15s1.52,5.14,3.4,5.14,3.39-2.3,3.39-5.14S343.42,34,341.55,34"/><path class="cls-5" d="M339.47,35.72h.78v2.63a2,2,0,0,1,1.57-.82,2.35,2.35,0,0,1,1.68.68,2.59,2.59,0,0,1,.58,1.81,2.35,2.35,0,0,1-2.25,2.54,2,2,0,0,1-1.58-1v.77h-.78Zm.78,4.91a1.75,1.75,0,0,0,1.51,1.21c1.07,0,1.4-1.23,1.41-1.82a2.07,2.07,0,0,0-.41-1.4,1.39,1.39,0,0,0-1-.42,1.69,1.69,0,0,0-1.55,1.1Z"/></g></g></g><g id="Mark_a" data-name="Mark a"><g class="cls-42"><g class="cls-42"><path class="cls-5" d="M324,39.12c0,3.53-2,6.39-4.46,6.39S315,42.65,315,39.12s2-6.39,4.47-6.39S324,35.59,324,39.12M319.51,34c-1.87,0-3.39,2.31-3.39,5.15s1.52,5.14,3.39,5.14,3.39-2.3,3.39-5.14S321.38,34,319.51,34"/><path class="cls-5" d="M317.17,38.09a1.63,1.63,0,0,1,1.28-1.34,3,3,0,0,1,.66-.09,2,2,0,0,1,1.46.57c.42.48.42.85.42,3.13,0,.52.1.52.87.52v.68c-.93,0-1,0-1.17-.06a.66.66,0,0,1-.45-.55,2.72,2.72,0,0,1-1.81.74A1.26,1.26,0,0,1,317,40.37c0-1.44,2-1.75,3.14-1.93a1,1,0,0,0-.63-1,1.79,1.79,0,0,0-.43-.08,1.51,1.51,0,0,0-.38.07.83.83,0,0,0-.6.69Zm3,1c-1,.14-2.3.46-2.3,1.31a.61.61,0,0,0,.69.59,2.28,2.28,0,0,0,1.61-.86Z"/></g></g></g><g id="Mark_d-2" data-name="Mark d"><g class="cls-43"><g class="cls-43"><path class="cls-5" d="M390.09,59.36c0,3.53-2,6.39-4.47,6.39s-4.46-2.86-4.46-6.39,2-6.39,4.46-6.39,4.47,2.86,4.47,6.39m-4.47-5.1c-1.87,0-3.39,2.3-3.39,5.15s1.52,5.14,3.39,5.14,3.4-2.3,3.4-5.14-1.52-5.15-3.4-5.15"/><path class="cls-5" d="M386.71,55.94h.81v6.69h-.81v-.78a2.1,2.1,0,0,1-1.6.9c-1.08,0-2.21-.72-2.21-2.63a2.32,2.32,0,0,1,2.24-2.45,1.89,1.89,0,0,1,1.57.84Zm0,3.6a1.71,1.71,0,0,0-1.48-1.16,1.47,1.47,0,0,0-.94.34,1.83,1.83,0,0,0-.51,1.42c0,.94.43,1.87,1.39,1.87.66,0,1.1-.47,1.54-1.12Z"/></g></g></g><g id="Mark_c-2" data-name="Mark c"><g class="cls-44"><g class="cls-44"><path class="cls-5" d="M368.05,59.36c0,3.53-2,6.39-4.46,6.39s-4.47-2.86-4.47-6.39,2-6.39,4.47-6.39,4.46,2.86,4.46,6.39m-4.46-5.1c-1.88,0-3.4,2.3-3.4,5.15s1.52,5.14,3.4,5.14,3.39-2.3,3.39-5.14-1.52-5.15-3.39-5.15"/><path class="cls-5" d="M365.57,60.37a1.83,1.83,0,0,1-2,1.56c-.36,0-2.28-.11-2.28-2.74a3.14,3.14,0,0,1,.44-1.44,2.18,2.18,0,0,1,1.77-.9,1.94,1.94,0,0,1,2.08,1.44h-1a1.05,1.05,0,0,0-1.13-.8,1.21,1.21,0,0,0-1.09.68,3.21,3.21,0,0,0-.26,1c0,1.37.66,2.05,1.42,2.05a1,1,0,0,0,1.11-.87Z"/></g></g></g><g id="Mark_b-2" data-name="Mark b"><g class="cls-45"><g class="cls-45"><path class="cls-5" d="M346,59.36c0,3.53-2,6.39-4.46,6.39s-4.47-2.86-4.47-6.39,2-6.39,4.47-6.39S346,55.83,346,59.36m-4.46-5.1c-1.88,0-3.4,2.3-3.4,5.15s1.52,5.14,3.4,5.14,3.39-2.3,3.39-5.14-1.52-5.15-3.39-5.15"/><path class="cls-5" d="M339.47,56h.78v2.62a2,2,0,0,1,1.57-.81,2.31,2.31,0,0,1,1.68.68,2.58,2.58,0,0,1,.58,1.8,2.35,2.35,0,0,1-2.25,2.54,2,2,0,0,1-1.58-.94v.77h-.78Zm.78,4.91a1.74,1.74,0,0,0,1.51,1.2c1.07,0,1.4-1.23,1.41-1.82a2.11,2.11,0,0,0-.41-1.4,1.39,1.39,0,0,0-1-.42,1.69,1.69,0,0,0-1.55,1.1Z"/></g></g></g><g id="Mark_a-2" data-name="Mark a"><g class="cls-46"><g class="cls-46"><path class="cls-5" d="M324,59.36c0,3.53-2,6.39-4.46,6.39S315,62.89,315,59.36,317,53,319.51,53,324,55.83,324,59.36m-4.46-5.1c-1.87,0-3.39,2.3-3.39,5.15s1.52,5.14,3.39,5.14,3.39-2.3,3.39-5.14-1.52-5.15-3.39-5.15"/><path class="cls-5" d="M317.17,58.32A1.62,1.62,0,0,1,318.45,57a3,3,0,0,1,.66-.1,2.07,2.07,0,0,1,1.46.57c.42.49.42.85.42,3.13,0,.52.1.52.87.52v.69c-.93,0-1,0-1.17-.07a.65.65,0,0,1-.45-.54,2.72,2.72,0,0,1-1.81.74A1.26,1.26,0,0,1,317,60.61c0-1.45,2-1.76,3.14-1.93a1,1,0,0,0-.63-1,1.41,1.41,0,0,0-.43-.08,1.17,1.17,0,0,0-.38.07.83.83,0,0,0-.6.68Zm3,1c-1,.14-2.3.46-2.3,1.32a.62.62,0,0,0,.69.59,2.28,2.28,0,0,0,1.61-.86Z"/></g></g></g><g id="Mark_d-3" data-name="Mark d"><g class="cls-47"><g class="cls-47"><path class="cls-5" d="M390.09,78.34c0,3.53-2,6.39-4.47,6.39s-4.46-2.86-4.46-6.39,2-6.39,4.46-6.39,4.47,2.86,4.47,6.39m-4.47-5.09c-1.87,0-3.39,2.3-3.39,5.14s1.52,5.15,3.39,5.15,3.4-2.31,3.4-5.15-1.52-5.14-3.4-5.14"/><path class="cls-5" d="M386.71,74.93h.81v6.69h-.81v-.78a2.12,2.12,0,0,1-1.6.89c-1.08,0-2.21-.72-2.21-2.62a2.32,2.32,0,0,1,2.24-2.46,1.91,1.91,0,0,1,1.57.84Zm0,3.6a1.72,1.72,0,0,0-1.48-1.17,1.45,1.45,0,0,0-.94.35,1.83,1.83,0,0,0-.51,1.42c0,.94.43,1.87,1.39,1.87.66,0,1.1-.47,1.54-1.13Z"/></g></g></g><g id="Mark_c-3" data-name="Mark c"><g class="cls-48"><g class="cls-48"><path class="cls-5" d="M368.05,78.34c0,3.53-2,6.39-4.46,6.39s-4.47-2.86-4.47-6.39,2-6.39,4.47-6.39,4.46,2.86,4.46,6.39m-4.46-5.09c-1.88,0-3.4,2.3-3.4,5.14s1.52,5.15,3.4,5.15S367,81.23,367,78.39s-1.52-5.14-3.39-5.14"/><path class="cls-5" d="M365.57,79.35a1.83,1.83,0,0,1-2,1.56c-.36,0-2.28-.1-2.28-2.73a3.14,3.14,0,0,1,.44-1.44,2.16,2.16,0,0,1,1.77-.91,1.94,1.94,0,0,1,2.08,1.45h-1a1,1,0,0,0-1.13-.8,1.21,1.21,0,0,0-1.09.67,3.24,3.24,0,0,0-.26,1c0,1.37.66,2,1.42,2a1,1,0,0,0,1.11-.88Z"/></g></g></g><g id="Mark_b-3" data-name="Mark b"><g class="cls-49"><g class="cls-49"><path class="cls-5" d="M346,78.34c0,3.53-2,6.39-4.46,6.39s-4.47-2.86-4.47-6.39,2-6.39,4.47-6.39S346,74.81,346,78.34m-4.46-5.09c-1.88,0-3.4,2.3-3.4,5.14s1.52,5.15,3.4,5.15,3.39-2.31,3.39-5.15-1.52-5.14-3.39-5.14"/><path class="cls-5" d="M339.47,74.94h.78v2.63a2,2,0,0,1,1.57-.81,2.31,2.31,0,0,1,1.68.68,2.58,2.58,0,0,1,.58,1.8,2.35,2.35,0,0,1-2.25,2.54,2,2,0,0,1-1.58-.94v.76h-.78Zm.78,4.92a1.76,1.76,0,0,0,1.51,1.2c1.07,0,1.4-1.23,1.41-1.82a2.07,2.07,0,0,0-.41-1.4,1.39,1.39,0,0,0-1-.42,1.69,1.69,0,0,0-1.55,1.1Z"/></g></g></g><g id="Mark_a-3" data-name="Mark a"><g class="cls-50"><g class="cls-50"><path class="cls-5" d="M324,78.34c0,3.53-2,6.39-4.46,6.39S315,81.87,315,78.34,317,72,319.51,72,324,74.81,324,78.34m-4.46-5.09c-1.87,0-3.39,2.3-3.39,5.14s1.52,5.15,3.39,5.15,3.39-2.31,3.39-5.15-1.52-5.14-3.39-5.14"/><path class="cls-5" d="M317.17,77.31A1.64,1.64,0,0,1,318.45,76a3.67,3.67,0,0,1,.66-.09,2,2,0,0,1,1.46.57c.42.49.42.85.42,3.13,0,.52.1.52.87.52v.68c-.93,0-1,0-1.17-.06a.66.66,0,0,1-.45-.54,2.71,2.71,0,0,1-1.81.73A1.25,1.25,0,0,1,317,79.6c0-1.45,2-1.76,3.14-1.94a1,1,0,0,0-.63-1,1.44,1.44,0,0,0-.43-.09,1.17,1.17,0,0,0-.38.08.83.83,0,0,0-.6.68Zm3,1c-1,.14-2.3.46-2.3,1.32a.61.61,0,0,0,.69.58,2.3,2.3,0,0,0,1.61-.85Z"/></g></g></g><path class="cls-5" d="M3.1,16.67H1.76V9.29a15.38,15.38,0,0,1-1,1.81A3.76,3.76,0,0,0,0,9.56,23,23,0,0,0,2.78,3.23l1.3.63c-.39,1.22-.45,1.37-1,2.76ZM9.15,4V5.26H6.7A11.21,11.21,0,0,1,6.4,7.1H8.81a11.51,11.51,0,0,1-4.05,9.39,3.19,3.19,0,0,0-1-1,10.22,10.22,0,0,0,2.72-3.28A6.73,6.73,0,0,0,4.81,11a5.19,5.19,0,0,1-.57.91,2.9,2.9,0,0,0-.87-1.05,11.53,11.53,0,0,0,2-5.57h-1V4ZM6.1,8.23a12.46,12.46,0,0,1-.63,1.59c.56.35,1.06.72,1.52,1.07a13,13,0,0,0,.55-2.66Zm4.66-3.3v8.24H9.53V4.93Zm2.37-1.3V15.22c0,1-.63,1.13-2.14,1.43a3.37,3.37,0,0,0-.66-1.43h1.22c.19,0,.27-.09.27-.28V3.63Z"/><path class="cls-5" d="M85.12,8.77l-.54,1.5a6.2,6.2,0,0,0-.42,1.67.93.93,0,0,0,0,.24l.12.75c0,.15,0,.37-.27.37-.53,0-1-1.56-1-3.54a17.08,17.08,0,0,1,.54-4.16,4.37,4.37,0,0,0,.08-.7c0-.47-.31-.75-.71-1l.13-.26c1.22.6,1.56,1.13,1.56,1.34s-.05.17-.18.38a11.64,11.64,0,0,0-.87,4.18,8.62,8.62,0,0,0,.15,1.58L84.9,8.66Zm.94-2.59A5.89,5.89,0,0,1,90.19,5a2.23,2.23,0,0,1,1.25.22.58.58,0,0,1,.21.38c0,.14-.09.23-.28.26L90.72,6a1.88,1.88,0,0,0-.58.19A10.3,10.3,0,0,0,88.3,7.43l-.16-.17,1.6-1.54a6.62,6.62,0,0,0-3.56.65ZM86.41,10c.18,1.11.49,2.25,3.09,2.25.11,0,1.15,0,1.63-.08.08,0,.48-.14.53-.14s.47.38.47.6-.31.24-.4.24l-2.1.1a5.29,5.29,0,0,1-2.07-.37,2.64,2.64,0,0,1-1.39-2.57Z"/><path class="cls-5" d="M96.66,10.72V9.91h3.65v.81Z"/><path class="cls-5" d="M104.68,13.65a2.65,2.65,0,0,1-2.85-2.42,3.09,3.09,0,0,1,2-2.58,8.17,8.17,0,0,1-1-.76,2.24,2.24,0,0,1-.6-1.54A2.41,2.41,0,0,1,104.7,4a2.29,2.29,0,0,1,2.48,2.09,2.61,2.61,0,0,1-1.67,2.17,5.55,5.55,0,0,1,1.36,1,2.5,2.5,0,0,1,.68,1.72A2.77,2.77,0,0,1,104.68,13.65Zm1.15-3.7-1.7-1.09a2.74,2.74,0,0,0-1.61,2.37,2.09,2.09,0,0,0,2.18,2,2,2,0,0,0,2.16-1.77A1.89,1.89,0,0,0,105.83,10Zm-1.15-5.59c-1,0-1.87.59-1.87,1.45a1.32,1.32,0,0,0,.69,1.13l1.71,1.12a2.38,2.38,0,0,0,1.36-2A1.81,1.81,0,0,0,104.68,4.36Z"/><path class="cls-5" d="M111.67,13.65c-1.51,0-2.79-.92-2.79-2.2a.78.78,0,1,1,1.55,0,.76.76,0,0,1-.91.77,2.48,2.48,0,0,0,2.1,1.07c.61,0,1.56-.41,1.56-2.31,0-1.38-.51-2.33-1.64-2.33h-.6c-.24,0-.34,0-.34-.15s.1-.16.21-.17l.54,0a1.34,1.34,0,0,0,1.22-.73,3.56,3.56,0,0,0,.39-1.6c0-1.26-.76-1.57-1.32-1.57a2.19,2.19,0,0,0-1.83.87c.2,0,.85,0,.85.7a.68.68,0,0,1-.7.72.67.67,0,0,1-.7-.73A2.18,2.18,0,0,1,111.69,4c1.32,0,2.54.79,2.54,1.94a2.69,2.69,0,0,1-1.93,2.46A2.7,2.7,0,0,1,114.6,11,2.84,2.84,0,0,1,111.67,13.65Z"/><path class="cls-5" d="M122.37,3.63h.56c1,0,1.36.33,1.36.47s0,.11-.13.32a8.74,8.74,0,0,0-.21,2c0,.84.07,1.29.35,1.51l.89-.33,1.1-.37.52-.19.51-.19a2.24,2.24,0,0,1,.36-.16c.12,0,.75.48.75.7s-.11.15-.19.16l-.8.11a22.28,22.28,0,0,0-3.9,1.1c-1.81.73-2.41,1.49-2.41,2.37,0,1.52,1.78,1.52,3.88,1.52.3,0,.85,0,1.16,0l.86,0a3.13,3.13,0,0,0,.89-.18,1,1,0,0,1,.28-.12c.14,0,.66.42.66.64s-.19.22-.32.23a20,20,0,0,1-3.1.21,14.2,14.2,0,0,1-3.53-.31,1.83,1.83,0,0,1-1.31-1.8c0-1.73,1.94-2.61,3.28-3.15-.38-.35-.59-.6-.59-2,0-.21,0-1.16,0-1.38,0-.68-.39-.72-1-.77Z"/><path class="cls-5" d="M130.82,7.7a12.74,12.74,0,0,0,1.68-2.32,12.91,12.91,0,0,0,1-2.47l.81.31c.11,0,.26.11.26.24s-.08.14-.47.2l-.24.54h1l.33-.38.7.44c.08,0,.22.15.22.21s0,.12-.49.22l-.94,1.42h.82l.22-.36.72.4c.07,0,.23.12.23.21s-.11.15-.34.25V13a1.11,1.11,0,0,1-1.14,1.1s-.15,0-.15,0c-.05-.49-.05-.52-.41-.58l-.49-.07,0-.26h1.52V10.51H132.9a6.06,6.06,0,0,1-1.71,3.61L131,14a6,6,0,0,0,1-2,7.65,7.65,0,0,0,.31-2.28V6.58A9.16,9.16,0,0,1,131,7.85Zm2.86-3.17c-.22.45-.54,1-.79,1.38l.31.2h1.15l.6-1.58Zm-.74,3.84v1.8h1V8.37Zm0-1.91V8h1V6.46Zm1.59,0V8h1.18V6.46Zm0,1.91v1.8h1.18V8.37Zm2.14-3.84-.21-.34h4.31l.32-.54.82.56c.15.1.19.17.19.25s-.05.13-.45.19c-.07.49-.13.85-.17,1.14a3,3,0,0,1-.18.77,1.39,1.39,0,0,1-1,.8c-.17,0-.18-.07-.22-.39,0-.12-.12-.17-.29-.22l-.56-.17V6.34h1.33a3.7,3.7,0,0,0,.4-1.81h-1.8a4.89,4.89,0,0,1-1.05,2,3.24,3.24,0,0,1-1.3,1l-.16-.18a3.94,3.94,0,0,0,.69-.65,4.85,4.85,0,0,0,1-2.26Zm.13,6.83-.18-.34H139V9.52h-1.34a12.15,12.15,0,0,1-.73,1.24l-.21-.09a10.28,10.28,0,0,0,.88-3l.75.26c.22.08.24.14.24.2s-.17.18-.41.22l-.36.87H139V7.54l.87.08c.06,0,.3,0,.3.19s0,.11-.44.27V9.17h.68l.55-.64.78.72v.27h-2V11h1l.69-.78.84.84v.28h-2.48V14.2l-.73.12v-3Z"/><path class="cls-5" d="M143.3,10.24a15.3,15.3,0,0,0,2.85-1.78A10.61,10.61,0,0,0,148.32,6l1,.42a.21.21,0,0,1,.17.19c0,.08,0,.09-.37.2a10,10,0,0,0,5.2,2.73l0,.21a1.14,1.14,0,0,0-1,.63,13.21,13.21,0,0,1-4.45-3.5l-.08,0c-.09.1-.49.48-.74.71a15,15,0,0,1-4.64,2.82ZM143.6,7a8.82,8.82,0,0,0,1.85-4l1.12.45a.17.17,0,0,1,.14.16c0,.11,0,.12-.49.19l-.28.57h1.65l.44-.6.82.65v.28h-2.48c.72.69.91.87.91,1.39a.5.5,0,0,1-.47.55c-.23,0-.25-.1-.43-1.1a1.67,1.67,0,0,0-.41-.84h-.23a7.54,7.54,0,0,1-2,2.44Zm2.26,7.13,0-4,1,.45H151l.29-.43.79.51s.17.12.17.24,0,.11-.4.2v2.68l-.78.12v-.6h-4.46V14Zm.73-4.78L146.46,9h2.76l.52-.58.86.69v.23Zm0,1.61v2h4.45v-2Zm1.94-5a10.14,10.14,0,0,0,1.07-3l1,.3a.22.22,0,0,1,.16.2c0,.09,0,.1-.4.23l-.35.68h2.5l.49-.69,1,.83v.2H150.9c.28.18,1,.63,1,1.32a.54.54,0,0,1-.53.55.27.27,0,0,1-.27-.26l-.17-.78a1.76,1.76,0,0,0-.42-.83h-.69a11,11,0,0,1-1,1.32Z"/><path class="cls-5" d="M161.4,5.66c-1.43.13-2.51.31-3.08.42,0,0-1.23.27-1.23.27s-.24.17-.29.17c-.22,0-.74-.38-1.21-1.34l.18-.12a1.13,1.13,0,0,0,1.12.54A9.36,9.36,0,0,0,158,5.51l1.18-.13c.67-.09,1.49-.16,2.22-.24V4.41c0-.73-.14-.9-1.06-1.11V3.08c1.27,0,2.08.48,2.08.66s-.16.25-.18.3a3.31,3.31,0,0,0-.14,1L164.22,5c.15,0,.88,0,.94-.07a3.55,3.55,0,0,1,.46-.21.45.45,0,0,1,.25.12l.33.3c.05,0,.34.29.34.46a.19.19,0,0,1-.21.18,2.77,2.77,0,0,1-.36,0c-.22,0-.63-.06-.74-.08l-1.12,0c-.31,0-.64,0-.94,0a9.21,9.21,0,0,0-1.11,0V7.7a2.48,2.48,0,0,1,.27.66,6.62,6.62,0,0,1,.12,1.42c0,2.64-1,3.42-3.47,4.13l-.08-.23c2.16-.85,2.64-1.72,2.76-3.29a1.56,1.56,0,0,1-1.23.56,1.76,1.76,0,0,1-1.75-1.86,1.91,1.91,0,0,1,1.81-2,2,2,0,0,1,.95.23Zm-.84,1.73c-.83,0-1.16.82-1.16,1.57,0,1.26.8,1.54,1.22,1.54.73,0,1.07-.6,1.07-1.49a2.48,2.48,0,0,0-.26-1.13A1,1,0,0,0,160.56,7.39Z"/><path class="cls-5" d="M171.36,8.53a7.72,7.72,0,0,1,3.32-.89,2.56,2.56,0,0,1,2.87,2.6c0,1.65-1.34,3.11-4,3.11-2,0-2.58-.92-2.58-1.52,0-.75.79-1.06,1.38-1.06a3.26,3.26,0,0,1,2.81,1.77,2.52,2.52,0,0,0,.95-.67,2.81,2.81,0,0,0,.68-1.79,2.07,2.07,0,0,0-2.34-2,6.86,6.86,0,0,0-4.87,2.5c0,.06-.19.26-.31.26s-.44-.42-.44-.66c0-.09.1-.18.26-.27a69.5,69.5,0,0,0,5.32-5.25c-.52.06-.81.1-1.24.17a6.93,6.93,0,0,0-1.72.52s-.23.22-.29.22A2.38,2.38,0,0,1,170,4l.18-.08c.35.49.6.65,1,.65.22,0,.78-.08,1-.1l2.1-.26a.66.66,0,0,0,.25-.06c.26-.17.29-.19.35-.19s.7.53.7.73,0,.07-.31.17a17.92,17.92,0,0,0-1.54,1.33Zm.7,2.77a.62.62,0,0,0-.68.6c0,.53.7,1,2,1a4.29,4.29,0,0,0,1-.14A3.07,3.07,0,0,0,172.06,11.3Z"/><path class="cls-5" d="M184.53,9.71,181,11.22c-.12.26-.15.34-.24.34s-.13-.07-.19-.14l-.55-.76,1.79-.45V6.64h-1.4l-.16-.34h1.56V3.12l.93.11c.1,0,.24.06.24.18s0,.11-.4.21V6.3h.66l.47-.73.85.78v.29h-2V10l1.83-.52Zm-2.1,2.51a7.79,7.79,0,0,0,3.08-3.48H183.8l-.2-.34h5.84l.57-.66.9.72v.28h-4.54l-.33.54-.27.46h3.8l.2-.37.78.41c.06,0,.18.11.18.2s-.1.16-.38.31a14.72,14.72,0,0,1-.51,3,1.47,1.47,0,0,1-1.19.8c-.16,0-.18-.08-.18-.21,0-.37,0-.4-.42-.47l-.64-.12V13h1.71a14.32,14.32,0,0,0,.51-2.95h-.88a7.87,7.87,0,0,1-3.68,3.9l-.15-.2a7.75,7.75,0,0,0,3-3.7h-.81a7.45,7.45,0,0,1-3.93,3.53l-.1-.21a7.52,7.52,0,0,0,2.17-1.77,5.24,5.24,0,0,0,1-1.55h-.83a8.11,8.11,0,0,1-2.95,2.32ZM184.92,8V3.22l.87.4h3l.28-.47.73.42c.19.1.24.17.24.26s-.05.11-.38.31V7.7l-.76.11V7.36h-3.18v.55Zm.75-2.75h3.18V4h-3.18Zm0,1.74h3.18V5.61h-3.18Z"/><path class="cls-5" d="M192.27,8.3a15,15,0,0,0,3-2.87A15,15,0,0,0,196.92,3l1.32.21c.09,0,.2.09.2.17s-.11.14-.36.19a11.64,11.64,0,0,0,5.13,3.75l-.05.16a1,1,0,0,0-.83.56,10,10,0,0,1-4.5-4.42l-.17.05a15.88,15.88,0,0,1-5.26,4.81ZM194.41,14V8.94l1,.43h4.68l.35-.52.83.54c.13.09.2.16.2.25s-.14.16-.39.2v3.83l-.77.07V13.3h-5.11v.6Zm.38-6.88h3.89l.59-.69,1,.75v.3h-5.34Zm.39,2.62v3.21h5.11V9.73Z"/><path class="cls-5" d="M42.58,7.51a12.35,12.35,0,0,1-2.3,2.72l-.83-.76a7.19,7.19,0,0,0,2.42-2.68H37.71c-.81,0-2.05,0-3.08.07v-1c.83.06,2.1.08,3,.08h2.49a19,19,0,0,0,2.41-.2l.77,1C43.1,6.84,43,6.87,42.58,7.51Zm-3.28.43c-.17,1.82-.37,4-2.78,5.8l-1-.67a5.83,5.83,0,0,0,1.94-1.86,5.45,5.45,0,0,0,.76-3.12c0-.23,0-.4,0-.76l1.13.12c.23,0,.28.15.28.23S39.55,7.8,39.3,7.94Z"/><path class="cls-5" d="M52.18,6.2a24.15,24.15,0,0,1-2.09,2v2.85c0,.75,0,.85,0,1.74a11.19,11.19,0,0,0,.07,1.2H49.09c0-.22,0-.46,0-.5,0-.4,0-2.17,0-2.53V9a16.53,16.53,0,0,1-2.87,1.62l-1-.82a10.3,10.3,0,0,0,3.57-1.84,11.86,11.86,0,0,0,2.77-2.84l.95.72a.26.26,0,0,1,.11.19C52.69,6.18,52.5,6.18,52.18,6.2Z"/><path class="cls-5" d="M63.22,8.35a11.07,11.07,0,0,1-1.06,3.14,7.19,7.19,0,0,1-2.85,2.8l-1-.7a4.69,4.69,0,0,0,2.34-1.67,6,6,0,0,0,1.28-2.34,6.15,6.15,0,0,0,.32-1.9H57v1.2c0,.15,0,.88.06,1.4H56a9.82,9.82,0,0,0,.09-1.1V8A5.72,5.72,0,0,0,56,6.83l1.34.08h1.9V6.14c0-.43,0-.85-.05-1.29L60.24,5c.09,0,.28,0,.28.19s-.16.17-.24.18a8.1,8.1,0,0,0-.08,1v.52h.4c.51,0,1.06,0,1.41,0a1.2,1.2,0,0,0,.71-.21l.79.7A2.31,2.31,0,0,0,63.22,8.35Z"/><ellipse class="cls-51" cx="77.17" cy="39.28" rx="4.2" ry="6.33"/><ellipse class="cls-51" cx="275.52" cy="59.17" rx="4.2" ry="6.14"/><ellipse class="cls-51" cx="165.18" cy="78.52" rx="4.2" ry="6.14"/></g></g></svg>