<svg xmlns="http://www.w3.org/2000/svg" xmlns:xlink="http://www.w3.org/1999/xlink" viewBox="0 0 337.86 82.75"><defs><style>.cls-1,.cls-3,.cls-41{fill:none;}.cls-2{fill:#fff;}.cls-2,.cls-3,.cls-41{stroke:#211815;stroke-miterlimit:10;}.cls-3{stroke-width:0.5px;}.cls-4,.cls-42{fill:#211815;}.cls-5{clip-path:url(#clip-path);}.cls-6{clip-path:url(#clip-path-3);}.cls-7{clip-path:url(#clip-path-5);}.cls-8{clip-path:url(#clip-path-7);}.cls-9{clip-path:url(#clip-path-9);}.cls-10{clip-path:url(#clip-path-11);}.cls-11{clip-path:url(#clip-path-13);}.cls-12{clip-path:url(#clip-path-15);}.cls-13{clip-path:url(#clip-path-17);}.cls-14{clip-path:url(#clip-path-19);}.cls-15{clip-path:url(#clip-path-21);}.cls-16{clip-path:url(#clip-path-23);}.cls-17{clip-path:url(#clip-path-25);}.cls-18{clip-path:url(#clip-path-27);}.cls-19{clip-path:url(#clip-path-29);}.cls-20{clip-path:url(#clip-path-31);}.cls-21{clip-path:url(#clip-path-33);}.cls-22{clip-path:url(#clip-path-35);}.cls-23{clip-path:url(#clip-path-37);}.cls-24{clip-path:url(#clip-path-39);}.cls-25{clip-path:url(#clip-path-41);}.cls-26{clip-path:url(#clip-path-43);}.cls-27{clip-path:url(#clip-path-45);}.cls-28{clip-path:url(#clip-path-47);}.cls-29{clip-path:url(#clip-path-49);}.cls-30{clip-path:url(#clip-path-51);}.cls-31{clip-path:url(#clip-path-53);}.cls-32{clip-path:url(#clip-path-55);}.cls-33{clip-path:url(#clip-path-57);}.cls-34{clip-path:url(#clip-path-59);}.cls-35{clip-path:url(#clip-path-61);}.cls-36{clip-path:url(#clip-path-63);}.cls-37{clip-path:url(#clip-path-65);}.cls-38{clip-path:url(#clip-path-67);}.cls-39{clip-path:url(#clip-path-69);}.cls-40{clip-path:url(#clip-path-71);}.cls-42{opacity:0.64;}</style><clipPath id="clip-path"><rect class="cls-1" x="66.36" y="19.54" width="24.02" height="27.87"/></clipPath><clipPath id="clip-path-3"><rect class="cls-1" x="88.4" y="19.86" width="24.02" height="27.87"/></clipPath><clipPath id="clip-path-5"><rect class="cls-1" x="110.43" y="19.54" width="24.02" height="27.87"/></clipPath><clipPath id="clip-path-7"><rect class="cls-1" x="308.78" y="19.54" width="24.02" height="27.87"/></clipPath><clipPath id="clip-path-9"><rect class="cls-1" x="286.74" y="19.54" width="24.02" height="27.87"/></clipPath><clipPath id="clip-path-11"><rect class="cls-1" x="264.7" y="19.54" width="24.02" height="27.87"/></clipPath><clipPath id="clip-path-13"><rect class="cls-1" x="242.67" y="19.54" width="24.02" height="27.87"/></clipPath><clipPath id="clip-path-15"><rect class="cls-1" x="220.63" y="19.54" width="24.02" height="27.87"/></clipPath><clipPath id="clip-path-17"><rect class="cls-1" x="198.59" y="19.54" width="24.02" height="27.87"/></clipPath><clipPath id="clip-path-19"><rect class="cls-1" x="176.55" y="19.54" width="24.02" height="27.87"/></clipPath><clipPath id="clip-path-21"><rect class="cls-1" x="154.51" y="19.54" width="24.02" height="27.87"/></clipPath><clipPath id="clip-path-23"><rect class="cls-1" x="132.47" y="19.54" width="24.02" height="27.87"/></clipPath><clipPath id="clip-path-25"><rect class="cls-1" x="66.36" y="39.17" width="24.02" height="27.87"/></clipPath><clipPath id="clip-path-27"><rect class="cls-1" x="88.4" y="39.49" width="24.02" height="27.87"/></clipPath><clipPath id="clip-path-29"><rect class="cls-1" x="110.43" y="39.17" width="24.02" height="27.87"/></clipPath><clipPath id="clip-path-31"><rect class="cls-1" x="308.78" y="39.17" width="24.02" height="27.87"/></clipPath><clipPath id="clip-path-33"><rect class="cls-1" x="286.74" y="39.17" width="24.02" height="27.87"/></clipPath><clipPath id="clip-path-35"><rect class="cls-1" x="264.7" y="39.17" width="24.02" height="27.87"/></clipPath><clipPath id="clip-path-37"><rect class="cls-1" x="242.67" y="39.17" width="24.02" height="27.87"/></clipPath><clipPath id="clip-path-39"><rect class="cls-1" x="220.63" y="39.17" width="24.02" height="27.87"/></clipPath><clipPath id="clip-path-41"><rect class="cls-1" x="198.59" y="39.17" width="24.02" height="27.87"/></clipPath><clipPath id="clip-path-43"><rect class="cls-1" x="176.55" y="39.17" width="24.02" height="27.87"/></clipPath><clipPath id="clip-path-45"><rect class="cls-1" x="154.51" y="39.17" width="24.02" height="27.87"/></clipPath><clipPath id="clip-path-47"><rect class="cls-1" x="132.47" y="39.17" width="24.02" height="27.87"/></clipPath><clipPath id="clip-path-49"><rect class="cls-1" x="66.36" y="58.73" width="24.02" height="27.87"/></clipPath><clipPath id="clip-path-51"><rect class="cls-1" x="88.4" y="59.05" width="24.02" height="27.87"/></clipPath><clipPath id="clip-path-53"><rect class="cls-1" x="110.43" y="58.73" width="24.02" height="27.87"/></clipPath><clipPath id="clip-path-55"><rect class="cls-1" x="308.78" y="58.73" width="24.02" height="27.87"/></clipPath><clipPath id="clip-path-57"><rect class="cls-1" x="286.74" y="58.73" width="24.02" height="27.87"/></clipPath><clipPath id="clip-path-59"><rect class="cls-1" x="264.7" y="58.73" width="24.02" height="27.87"/></clipPath><clipPath id="clip-path-61"><rect class="cls-1" x="242.67" y="58.73" width="24.02" height="27.87"/></clipPath><clipPath id="clip-path-63"><rect class="cls-1" x="220.63" y="58.73" width="24.02" height="27.87"/></clipPath><clipPath id="clip-path-65"><rect class="cls-1" x="198.59" y="58.73" width="24.02" height="27.87"/></clipPath><clipPath id="clip-path-67"><rect class="cls-1" x="176.55" y="58.73" width="24.02" height="27.87"/></clipPath><clipPath id="clip-path-69"><rect class="cls-1" x="154.51" y="58.73" width="24.02" height="27.87"/></clipPath><clipPath id="clip-path-71"><rect class="cls-1" x="132.47" y="58.73" width="24.02" height="27.87"/></clipPath></defs><g id="レイヤー_2" data-name="レイヤー 2"><g id="レイヤー_1-2" data-name="レイヤー 1"><rect class="cls-2" x="25.88" y="23.5" width="311.48" height="58.75"/><rect class="cls-3" x="57.44" y="23.5" width="279.92" height="58.75"/><rect class="cls-3" x="25.75" y="23.5" width="311.61" height="19.56"/><path class="cls-4" d="M47.06,29.42l.17-.12.88,1.05c-.51.4-1.22,1.1-1.7,1.53S45.08,33.05,43.9,34l-.47-.6c-.21,3.91-1.1,5.09-4.23,6.3a4.17,4.17,0,0,0-.8-1.22C42,37.68,42,35.43,42,32.16h1.42v.7a29.39,29.39,0,0,0,2.42-2.24H38v-1.2Z"/><g id="Mark_-" data-name="Mark -"><g class="cls-5"><g class="cls-5"><path class="cls-4" d="M82.83,33.47c0,3.53-2,6.39-4.46,6.39S73.9,37,73.9,33.47s2-6.39,4.47-6.39,4.46,2.87,4.46,6.39m-4.46-5.09c-1.88,0-3.4,2.3-3.4,5.14s1.52,5.15,3.4,5.15,3.39-2.31,3.39-5.15-1.52-5.14-3.39-5.14"/><rect class="cls-4" x="75.79" y="33.34" width="5.01" height="0.79"/></g></g></g><g id="Mark_--2" data-name="Mark -"><g class="cls-6"><g class="cls-6"><path class="cls-4" d="M104.87,33.79c0,3.53-2,6.39-4.47,6.39s-4.46-2.86-4.46-6.39,2-6.39,4.46-6.39,4.47,2.86,4.47,6.39M100.4,28.7C98.53,28.7,97,31,97,33.84S98.53,39,100.4,39s3.4-2.3,3.4-5.14-1.52-5.14-3.4-5.14"/><rect class="cls-4" x="97.83" y="36.08" width="5.01" height="0.79"/><path class="cls-4" d="M100.68,30.75v2h2v.8h-2v2h-.83v-2h-2v-.8h2v-2Z"/></g></g></g><g id="Mark_0" data-name="Mark 0"><g class="cls-7"><g class="cls-7"><path class="cls-4" d="M126.91,33.47c0,3.53-2,6.39-4.47,6.39S118,37,118,33.47s2-6.39,4.46-6.39,4.47,2.87,4.47,6.39m-4.47-5.09c-1.87,0-3.39,2.3-3.39,5.14s1.52,5.15,3.39,5.15,3.4-2.31,3.4-5.15-1.52-5.14-3.4-5.14"/><path class="cls-4" d="M120.07,33.57a5.35,5.35,0,0,1,.64-2.49,2.06,2.06,0,0,1,1.73-1,2.28,2.28,0,0,1,2,1.33,5.68,5.68,0,0,1,.4,2.07c0,.91,0,3.48-2.38,3.48-1.22,0-2.37-.93-2.37-3.38m1.22,2a1.36,1.36,0,0,0,1.15.63c1.46,0,1.47-1.59,1.47-2.58,0-2.1-.81-2.76-1.47-2.76-.88,0-1.16.92-1.25,1.21a6.57,6.57,0,0,0-.22,1.55,4.43,4.43,0,0,0,.32,2"/></g></g></g><g id="Mark_9" data-name="Mark 9"><g class="cls-8"><g class="cls-8"><path class="cls-4" d="M325.25,33.47c0,3.53-2,6.39-4.46,6.39s-4.46-2.86-4.46-6.39,2-6.39,4.46-6.39,4.46,2.87,4.46,6.39m-4.46-5.09c-1.87,0-3.39,2.3-3.39,5.14s1.52,5.15,3.39,5.15,3.39-2.31,3.39-5.15-1.52-5.14-3.39-5.14"/><path class="cls-4" d="M319.66,35.34a1,1,0,0,0,1,.86,1.11,1.11,0,0,0,.91-.47,3.48,3.48,0,0,0,.47-1.91,2,2,0,0,1-1.48.64,1.94,1.94,0,0,1-1.93-2.05,2.12,2.12,0,0,1,2.12-2.32,2.05,2.05,0,0,1,1.8,1,5.07,5.07,0,0,1,.38,2.2c0,1.58-.29,3.58-2.32,3.58a2.06,2.06,0,0,1-1.19-.34,1.93,1.93,0,0,1-.76-1.22Zm1-1.63a1.35,1.35,0,0,0,1.11-.5,1.36,1.36,0,0,0,.25-.52,2,2,0,0,0-.6-1.62,1.29,1.29,0,0,0-.75-.27c-.33,0-1.21.29-1.21,1.55a1.16,1.16,0,0,0,1.2,1.36"/></g></g></g><g id="_8" data-name="8"><g class="cls-9"><g class="cls-9"><path class="cls-4" d="M303.22,33.47c0,3.53-2,6.39-4.47,6.39s-4.46-2.86-4.46-6.39,2-6.39,4.46-6.39,4.47,2.87,4.47,6.39m-4.47-5.09c-1.87,0-3.39,2.3-3.39,5.14s1.52,5.15,3.39,5.15,3.39-2.31,3.39-5.15-1.52-5.14-3.39-5.14"/><path class="cls-4" d="M301.11,35.18c0,1.11-.88,1.81-2.37,1.81-1.12,0-2.32-.55-2.32-1.83,0-1,.89-1.54,1.4-1.85a1.74,1.74,0,0,1-1.18-1.57c0-1.06,1-1.62,2.05-1.62s2.05.55,2.05,1.66a1.76,1.76,0,0,1-1.18,1.53c.92.47,1.55.95,1.55,1.87m-.89,0c0-.7-.79-1.13-1.55-1.48-.82.44-1.41.79-1.41,1.52s.72,1,1.45,1,1.51-.35,1.51-1.08m-2.35-4.07a.9.9,0,0,0-.32.7c0,.73.9,1.07,1.25,1.19.52-.24,1.05-.64,1.05-1.21a1,1,0,0,0-.19-.57,1.25,1.25,0,0,0-1.05-.42,1.73,1.73,0,0,0-.74.31"/></g></g></g><g id="Mark_7" data-name="Mark 7"><g class="cls-10"><g class="cls-10"><path class="cls-4" d="M281.18,33.47c0,3.53-2,6.39-4.47,6.39s-4.46-2.86-4.46-6.39,2-6.39,4.46-6.39,4.47,2.87,4.47,6.39m-4.47-5.09c-1.87,0-3.39,2.3-3.39,5.14s1.52,5.15,3.39,5.15,3.4-2.31,3.4-5.15-1.52-5.14-3.4-5.14"/><path class="cls-4" d="M274.76,30.28H279v.79a8.16,8.16,0,0,0-2.14,5.69h-1a9.38,9.38,0,0,1,2.08-5.67h-3.17Z"/></g></g></g><g id="Mark_6" data-name="Mark 6"><g class="cls-11"><g class="cls-11"><path class="cls-4" d="M259.14,33.47c0,3.53-2,6.39-4.47,6.39s-4.46-2.86-4.46-6.39,2-6.39,4.46-6.39,4.47,2.87,4.47,6.39m-4.47-5.09c-1.87,0-3.39,2.3-3.39,5.14s1.52,5.15,3.39,5.15,3.4-2.31,3.4-5.15-1.52-5.14-3.4-5.14"/><path class="cls-4" d="M255.69,31.66a.91.91,0,0,0-.94-.86c-1.29,0-1.42,1.68-1.47,2.35a2.27,2.27,0,0,1,1.52-.58,1.87,1.87,0,0,1,1.91,2.06,2.05,2.05,0,0,1-2.08,2.3,2,2,0,0,1-1.74-.92,4.63,4.63,0,0,1-.51-2.48,4.16,4.16,0,0,1,.68-2.63,2.15,2.15,0,0,1,1.66-.84,2.27,2.27,0,0,1,.88.18,1.81,1.81,0,0,1,1.1,1.42Zm-1.1,4.52a1.25,1.25,0,0,0,1.25-1.42c0-.29,0-1.45-1.2-1.45a1.72,1.72,0,0,0-1.36.72c0,1.12.31,2.15,1.31,2.15"/></g></g></g><g id="Mark_5" data-name="Mark 5"><g class="cls-12"><g class="cls-12"><path class="cls-4" d="M237.1,33.47c0,3.53-2,6.39-4.46,6.39s-4.47-2.86-4.47-6.39,2-6.39,4.47-6.39,4.46,2.87,4.46,6.39m-4.46-5.09c-1.88,0-3.4,2.3-3.4,5.14s1.52,5.15,3.4,5.15S236,36.36,236,33.52s-1.52-5.14-3.39-5.14"/><path class="cls-4" d="M231,30.21h3.47V31h-2.76l-.19,2a2.19,2.19,0,0,1,1.26-.37,2,2,0,0,1,2.08,2.15,2.12,2.12,0,0,1-2.2,2.21,2.22,2.22,0,0,1-2.27-1.83h.95a1.24,1.24,0,0,0,1.26,1.13A1.35,1.35,0,0,0,234,34.83a1.4,1.4,0,0,0-1.39-1.56,1.29,1.29,0,0,0-1.14.65l-.77-.29Z"/></g></g></g><g id="Mark_4" data-name="Mark 4"><g class="cls-13"><g class="cls-13"><path class="cls-4" d="M215.06,33.47c0,3.53-2,6.39-4.46,6.39s-4.47-2.86-4.47-6.39,2-6.39,4.47-6.39,4.46,2.87,4.46,6.39m-4.46-5.09c-1.88,0-3.4,2.3-3.4,5.14s1.52,5.15,3.4,5.15S214,36.36,214,33.52s-1.52-5.14-3.39-5.14"/><path class="cls-4" d="M211.35,30.23H212v4.41h.83v.76H212v1.46h-.83V35.4h-3v-.93Zm-.14,1.46L209,34.64h2.2Z"/></g></g></g><g id="Mark_3" data-name="Mark 3"><g class="cls-14"><g class="cls-14"><path class="cls-4" d="M193,33.47c0,3.53-2,6.39-4.46,6.39S184.1,37,184.1,33.47s2-6.39,4.46-6.39S193,30,193,33.47m-4.46-5.09c-1.87,0-3.39,2.3-3.39,5.14s1.52,5.15,3.39,5.15S192,36.36,192,33.52s-1.52-5.14-3.39-5.14"/><path class="cls-4" d="M187.64,33c1.43,0,1.57,0,1.82-.45a1.27,1.27,0,0,0,.22-.69,1,1,0,0,0-1.07-1.06,1,1,0,0,0-1,1h-.87a1.8,1.8,0,0,1,1.9-1.67,1.77,1.77,0,0,1,2,1.66,1.56,1.56,0,0,1-1,1.49A1.83,1.83,0,0,1,190.83,35,2,2,0,0,1,188.7,37a2.53,2.53,0,0,1-1.55-.53,2.45,2.45,0,0,1-.67-1.45h1a1.19,1.19,0,0,0,.74,1.11A1.2,1.2,0,0,0,189.88,35a1.24,1.24,0,0,0-1-1.27,9.54,9.54,0,0,0-1.26,0Z"/></g></g></g><g id="Mark_2" data-name="Mark 2"><g class="cls-15"><g class="cls-15"><path class="cls-4" d="M171,33.47c0,3.53-2,6.39-4.46,6.39s-4.46-2.86-4.46-6.39,2-6.39,4.46-6.39S171,30,171,33.47m-4.46-5.09c-1.87,0-3.39,2.3-3.39,5.14s1.52,5.15,3.39,5.15,3.39-2.31,3.39-5.15-1.52-5.14-3.39-5.14"/><path class="cls-4" d="M164.24,32.28a2.51,2.51,0,0,1,.66-1.56,2.23,2.23,0,0,1,1.52-.59A1.92,1.92,0,0,1,168.51,32a2.66,2.66,0,0,1-1.29,2.09c-1.44,1.16-1.64,1.32-1.85,2h3.21v.76h-4.25A3.71,3.71,0,0,1,166,34c1-.9,1.59-1.37,1.59-2.1a1.1,1.1,0,0,0-1.12-1.12,1.27,1.27,0,0,0-.88.29,1.44,1.44,0,0,0-.4,1.17Z"/></g></g></g><g id="Mark_1" data-name="Mark 1"><g class="cls-16"><g class="cls-16"><path class="cls-4" d="M149,33.47c0,3.53-2,6.39-4.47,6.39S140,37,140,33.47s2-6.39,4.46-6.39S149,30,149,33.47m-4.47-5.09c-1.87,0-3.39,2.3-3.39,5.14s1.52,5.15,3.39,5.15,3.39-2.31,3.39-5.15-1.52-5.14-3.39-5.14"/><path class="cls-4" d="M142.91,30.74a1.66,1.66,0,0,0,1.35-.54H145v6.58h-.89V31.19a2.88,2.88,0,0,1-1.23.33Z"/></g></g></g><rect class="cls-3" x="25.75" y="43.13" width="311.61" height="19.56"/><path class="cls-4" d="M47.28,49.12c-1.76,1.78-2,2-3,2.94v7.25H42.88V53.14A22.2,22.2,0,0,1,38.17,56a3.34,3.34,0,0,0-.71-1.23,21.44,21.44,0,0,0,8.66-6.64Z"/><g id="Mark_--3" data-name="Mark -"><g class="cls-17"><g class="cls-17"><path class="cls-4" d="M82.83,53.11c0,3.53-2,6.39-4.46,6.39s-4.47-2.86-4.47-6.39,2-6.39,4.47-6.39,4.46,2.86,4.46,6.39M78.37,48c-1.88,0-3.4,2.31-3.4,5.15s1.52,5.14,3.4,5.14,3.39-2.3,3.39-5.14S80.24,48,78.37,48"/><rect class="cls-4" x="75.79" y="52.97" width="5.01" height="0.79"/></g></g></g><g id="Mark_--4" data-name="Mark -"><g class="cls-18"><g class="cls-18"><path class="cls-4" d="M104.87,53.43c0,3.53-2,6.39-4.47,6.39S95.94,57,95.94,53.43s2-6.39,4.46-6.39,4.47,2.86,4.47,6.39m-4.47-5.1c-1.87,0-3.39,2.3-3.39,5.15s1.52,5.14,3.39,5.14,3.4-2.3,3.4-5.14-1.52-5.15-3.4-5.15"/><rect class="cls-4" x="97.83" y="55.71" width="5.01" height="0.79"/><path class="cls-4" d="M100.68,50.38v2h2v.79h-2v2h-.83v-2h-2v-.79h2v-2Z"/></g></g></g><g id="Mark_0-2" data-name="Mark 0"><g class="cls-19"><g class="cls-19"><path class="cls-4" d="M126.91,53.11c0,3.53-2,6.39-4.47,6.39S118,56.64,118,53.11s2-6.39,4.46-6.39,4.47,2.86,4.47,6.39M122.44,48c-1.87,0-3.39,2.31-3.39,5.15s1.52,5.14,3.39,5.14,3.4-2.3,3.4-5.14S124.32,48,122.44,48"/><path class="cls-4" d="M120.07,53.2a5.32,5.32,0,0,1,.64-2.48,2.08,2.08,0,0,1,1.73-1,2.28,2.28,0,0,1,2,1.34,5.67,5.67,0,0,1,.4,2.06c0,.92,0,3.48-2.38,3.48-1.22,0-2.37-.93-2.37-3.38m1.22,2a1.36,1.36,0,0,0,1.15.63c1.46,0,1.47-1.6,1.47-2.59,0-2.1-.81-2.75-1.47-2.75-.88,0-1.16.91-1.25,1.2A6.7,6.7,0,0,0,121,53.2a4.47,4.47,0,0,0,.32,2"/></g></g></g><g id="Mark_9-2" data-name="Mark 9"><g class="cls-20"><g class="cls-20"><path class="cls-4" d="M325.25,53.11c0,3.53-2,6.39-4.46,6.39s-4.46-2.86-4.46-6.39,2-6.39,4.46-6.39,4.46,2.86,4.46,6.39M320.79,48c-1.87,0-3.39,2.31-3.39,5.15s1.52,5.14,3.39,5.14,3.39-2.3,3.39-5.14S322.66,48,320.79,48"/><path class="cls-4" d="M319.66,55a1,1,0,0,0,1,.86,1.09,1.09,0,0,0,.91-.48,3.47,3.47,0,0,0,.47-1.9,2,2,0,0,1-1.48.63,1.94,1.94,0,0,1-1.93-2,2.12,2.12,0,0,1,2.12-2.32,2.05,2.05,0,0,1,1.8,1,5.05,5.05,0,0,1,.38,2.19c0,1.59-.29,3.59-2.32,3.59a2,2,0,0,1-1.19-.35,1.93,1.93,0,0,1-.76-1.21Zm1-1.64a1.33,1.33,0,0,0,1.11-.49,1.45,1.45,0,0,0,.25-.52,2,2,0,0,0-.6-1.63,1.36,1.36,0,0,0-.75-.26c-.33,0-1.21.29-1.21,1.55a1.15,1.15,0,0,0,1.2,1.35"/></g></g></g><g id="_8-2" data-name="8"><g class="cls-21"><g class="cls-21"><path class="cls-4" d="M303.22,53.11c0,3.53-2,6.39-4.47,6.39s-4.46-2.86-4.46-6.39,2-6.39,4.46-6.39,4.47,2.86,4.47,6.39M298.75,48c-1.87,0-3.39,2.31-3.39,5.15s1.52,5.14,3.39,5.14,3.39-2.3,3.39-5.14S300.62,48,298.75,48"/><path class="cls-4" d="M301.11,54.81c0,1.11-.88,1.81-2.37,1.81-1.12,0-2.32-.54-2.32-1.83,0-1,.89-1.54,1.4-1.85a1.73,1.73,0,0,1-1.18-1.57c0-1,1-1.61,2.05-1.61s2.05.55,2.05,1.65c0,.86-.64,1.24-1.18,1.53.92.47,1.55,1,1.55,1.87m-.89,0c0-.7-.79-1.13-1.55-1.47-.82.43-1.41.78-1.41,1.52s.72,1,1.45,1,1.51-.35,1.51-1.09m-2.35-4.06a.87.87,0,0,0-.32.69c0,.74.9,1.07,1.25,1.2.52-.25,1.05-.64,1.05-1.22a1.08,1.08,0,0,0-.19-.57,1.25,1.25,0,0,0-1.05-.42,1.76,1.76,0,0,0-.74.32"/></g></g></g><g id="Mark_7-2" data-name="Mark 7"><g class="cls-22"><g class="cls-22"><path class="cls-4" d="M281.18,53.11c0,3.53-2,6.39-4.47,6.39s-4.46-2.86-4.46-6.39,2-6.39,4.46-6.39,4.47,2.86,4.47,6.39M276.71,48c-1.87,0-3.39,2.31-3.39,5.15s1.52,5.14,3.39,5.14,3.4-2.3,3.4-5.14S278.59,48,276.71,48"/><path class="cls-4" d="M274.76,49.92H279v.78a8.18,8.18,0,0,0-2.14,5.7h-1a9.38,9.38,0,0,1,2.08-5.67h-3.17Z"/></g></g></g><g id="Mark_6-2" data-name="Mark 6"><g class="cls-23"><g class="cls-23"><path class="cls-4" d="M259.14,53.11c0,3.53-2,6.39-4.47,6.39s-4.46-2.86-4.46-6.39,2-6.39,4.46-6.39,4.47,2.86,4.47,6.39M254.67,48c-1.87,0-3.39,2.31-3.39,5.15s1.52,5.14,3.39,5.14,3.4-2.3,3.4-5.14S256.55,48,254.67,48"/><path class="cls-4" d="M255.69,51.3a.92.92,0,0,0-.94-.87c-1.29,0-1.42,1.68-1.47,2.35a2.32,2.32,0,0,1,1.52-.58,1.88,1.88,0,0,1,1.91,2.07,2.06,2.06,0,0,1-2.08,2.3,2,2,0,0,1-1.74-.93,4.61,4.61,0,0,1-.51-2.47,4.21,4.21,0,0,1,.68-2.64,2.15,2.15,0,0,1,1.66-.84,2.47,2.47,0,0,1,.88.18,1.83,1.83,0,0,1,1.1,1.43Zm-1.1,4.52a1.26,1.26,0,0,0,1.25-1.43c0-.29,0-1.45-1.2-1.45a1.72,1.72,0,0,0-1.36.72c0,1.12.31,2.16,1.31,2.16"/></g></g></g><g id="Mark_5-2" data-name="Mark 5"><g class="cls-24"><g class="cls-24"><path class="cls-4" d="M237.1,53.11c0,3.53-2,6.39-4.46,6.39s-4.47-2.86-4.47-6.39,2-6.39,4.47-6.39,4.46,2.86,4.46,6.39M232.64,48c-1.88,0-3.4,2.31-3.4,5.15s1.52,5.14,3.4,5.14S236,56,236,53.16,234.51,48,232.64,48"/><path class="cls-4" d="M231,49.84h3.47v.78h-2.76l-.19,2a2.19,2.19,0,0,1,1.26-.38,2,2,0,0,1,2.08,2.15,2.12,2.12,0,0,1-2.2,2.21,2.22,2.22,0,0,1-2.27-1.83h.95a1.23,1.23,0,0,0,1.26,1.13A1.34,1.34,0,0,0,234,54.46a1.39,1.39,0,0,0-1.39-1.55,1.27,1.27,0,0,0-1.14.65l-.77-.29Z"/></g></g></g><g id="Mark_4-2" data-name="Mark 4"><g class="cls-25"><g class="cls-25"><path class="cls-4" d="M215.06,53.11c0,3.53-2,6.39-4.46,6.39s-4.47-2.86-4.47-6.39,2-6.39,4.47-6.39,4.46,2.86,4.46,6.39M210.6,48c-1.88,0-3.4,2.31-3.4,5.15s1.52,5.14,3.4,5.14S214,56,214,53.16,212.47,48,210.6,48"/><path class="cls-4" d="M211.35,49.87H212v4.41h.83V55H212v1.45h-.83V55h-3v-.93Zm-.14,1.46-2.2,3h2.2Z"/></g></g></g><g id="Mark_3-2" data-name="Mark 3"><g class="cls-26"><g class="cls-26"><path class="cls-4" d="M193,53.11c0,3.53-2,6.39-4.46,6.39s-4.46-2.86-4.46-6.39,2-6.39,4.46-6.39S193,49.58,193,53.11M188.56,48c-1.87,0-3.39,2.31-3.39,5.15s1.52,5.14,3.39,5.14S192,56,192,53.16,190.43,48,188.56,48"/><path class="cls-4" d="M187.64,52.63c1.43,0,1.57,0,1.82-.44a1.3,1.3,0,0,0,.22-.7,1,1,0,0,0-1.07-1.06,1,1,0,0,0-1,1h-.87a1.8,1.8,0,0,1,1.9-1.67,1.77,1.77,0,0,1,2,1.66,1.55,1.55,0,0,1-1,1.48,1.84,1.84,0,0,1,1.19,1.75,2,2,0,0,1-2.13,1.93,2.47,2.47,0,0,1-1.55-.53,2.42,2.42,0,0,1-.67-1.45h1a1.21,1.21,0,1,0,2.42,0,1.23,1.23,0,0,0-1-1.27,9.54,9.54,0,0,0-1.26,0Z"/></g></g></g><g id="Mark_2-2" data-name="Mark 2"><g class="cls-27"><g class="cls-27"><path class="cls-4" d="M171,53.11c0,3.53-2,6.39-4.46,6.39s-4.46-2.86-4.46-6.39,2-6.39,4.46-6.39S171,49.58,171,53.11M166.52,48c-1.87,0-3.39,2.31-3.39,5.15s1.52,5.14,3.39,5.14,3.39-2.3,3.39-5.14S168.39,48,166.52,48"/><path class="cls-4" d="M164.24,51.91a2.46,2.46,0,0,1,.66-1.55,2.18,2.18,0,0,1,1.52-.59,1.92,1.92,0,0,1,2.09,1.85,2.69,2.69,0,0,1-1.29,2.09c-1.44,1.16-1.64,1.31-1.85,2h3.21v.75h-4.25A3.73,3.73,0,0,1,166,53.67c1-.89,1.59-1.36,1.59-2.09a1.11,1.11,0,0,0-1.12-1.13,1.28,1.28,0,0,0-.88.3,1.41,1.41,0,0,0-.4,1.16Z"/></g></g></g><g id="Mark_1-2" data-name="Mark 1"><g class="cls-28"><g class="cls-28"><path class="cls-4" d="M149,53.11c0,3.53-2,6.39-4.47,6.39S140,56.64,140,53.11s2-6.39,4.46-6.39S149,49.58,149,53.11M144.48,48c-1.87,0-3.39,2.31-3.39,5.15s1.52,5.14,3.39,5.14,3.39-2.3,3.39-5.14S146.35,48,144.48,48"/><path class="cls-4" d="M142.91,50.37a1.63,1.63,0,0,0,1.35-.54H145v6.59h-.89v-5.6a3,3,0,0,1-1.23.34Z"/></g></g></g><rect class="cls-3" x="25.75" y="62.69" width="311.61" height="19.56"/><path class="cls-4" d="M42.24,67.59h1.35v2.27h3.83c-.11,4.69-1.21,7.45-6.85,9.14a3.56,3.56,0,0,0-.65-1.27c5-1.09,6-3.53,6.06-6.77H39.8v3.28H38.48V69.86h3.76Z"/><g id="Mark_--5" data-name="Mark -"><g class="cls-29"><g class="cls-29"><path class="cls-4" d="M82.83,72.66c0,3.53-2,6.39-4.46,6.39s-4.47-2.86-4.47-6.39,2-6.39,4.47-6.39,4.46,2.87,4.46,6.39m-4.46-5.09c-1.88,0-3.4,2.3-3.4,5.14s1.52,5.15,3.4,5.15,3.39-2.31,3.39-5.15-1.52-5.14-3.39-5.14"/><rect class="cls-4" x="75.79" y="72.53" width="5.01" height="0.79"/></g></g></g><g id="Mark_--6" data-name="Mark -"><g class="cls-30"><g class="cls-30"><path class="cls-4" d="M104.87,73c0,3.53-2,6.39-4.47,6.39S95.94,76.51,95.94,73s2-6.39,4.46-6.39,4.47,2.86,4.47,6.39m-4.47-5.1C98.53,67.88,97,70.19,97,73s1.52,5.14,3.39,5.14,3.4-2.3,3.4-5.14-1.52-5.15-3.4-5.15"/><rect class="cls-4" x="97.83" y="75.26" width="5.01" height="0.79"/><path class="cls-4" d="M100.68,69.93v2h2v.8h-2v2h-.83v-2h-2V72h2v-2Z"/></g></g></g><g id="Mark_0-3" data-name="Mark 0"><g class="cls-31"><g class="cls-31"><path class="cls-4" d="M126.91,72.66c0,3.53-2,6.39-4.47,6.39S118,76.19,118,72.66s2-6.39,4.46-6.39,4.47,2.87,4.47,6.39m-4.47-5.09c-1.87,0-3.39,2.3-3.39,5.14s1.52,5.15,3.39,5.15,3.4-2.31,3.4-5.15-1.52-5.14-3.4-5.14"/><path class="cls-4" d="M120.07,72.76a5.35,5.35,0,0,1,.64-2.49,2.06,2.06,0,0,1,1.73-1,2.28,2.28,0,0,1,2,1.33,5.68,5.68,0,0,1,.4,2.07c0,.91,0,3.48-2.38,3.48-1.22,0-2.37-.93-2.37-3.38m1.22,1.95a1.36,1.36,0,0,0,1.15.63c1.46,0,1.47-1.59,1.47-2.58,0-2.1-.81-2.76-1.47-2.76-.88,0-1.16.92-1.25,1.21a6.57,6.57,0,0,0-.22,1.55,4.43,4.43,0,0,0,.32,1.95"/></g></g></g><g id="Mark_9-3" data-name="Mark 9"><g class="cls-32"><g class="cls-32"><path class="cls-4" d="M325.25,72.66c0,3.53-2,6.39-4.46,6.39s-4.46-2.86-4.46-6.39,2-6.39,4.46-6.39,4.46,2.87,4.46,6.39m-4.46-5.09c-1.87,0-3.39,2.3-3.39,5.14s1.52,5.15,3.39,5.15,3.39-2.31,3.39-5.15-1.52-5.14-3.39-5.14"/><path class="cls-4" d="M319.66,74.53a1,1,0,0,0,1,.86,1.11,1.11,0,0,0,.91-.47,3.48,3.48,0,0,0,.47-1.91,2,2,0,0,1-1.48.64,1.94,1.94,0,0,1-1.93-2.05,2.12,2.12,0,0,1,2.12-2.32,2.05,2.05,0,0,1,1.8,1,5.07,5.07,0,0,1,.38,2.2c0,1.58-.29,3.58-2.32,3.58a2.06,2.06,0,0,1-1.19-.34,1.93,1.93,0,0,1-.76-1.22Zm1-1.63a1.35,1.35,0,0,0,1.11-.5,1.36,1.36,0,0,0,.25-.52,2,2,0,0,0-.6-1.62,1.29,1.29,0,0,0-.75-.27c-.33,0-1.21.29-1.21,1.55a1.16,1.16,0,0,0,1.2,1.36"/></g></g></g><g id="_8-3" data-name="8"><g class="cls-33"><g class="cls-33"><path class="cls-4" d="M303.22,72.66c0,3.53-2,6.39-4.47,6.39s-4.46-2.86-4.46-6.39,2-6.39,4.46-6.39,4.47,2.87,4.47,6.39m-4.47-5.09c-1.87,0-3.39,2.3-3.39,5.14s1.52,5.15,3.39,5.15,3.39-2.31,3.39-5.15-1.52-5.14-3.39-5.14"/><path class="cls-4" d="M301.11,74.37c0,1.11-.88,1.81-2.37,1.81-1.12,0-2.32-.55-2.32-1.84a2.26,2.26,0,0,1,1.4-1.84,1.76,1.76,0,0,1-1.18-1.57c0-1.06,1-1.62,2.05-1.62s2.05.55,2.05,1.66a1.76,1.76,0,0,1-1.18,1.53c.92.46,1.55,1,1.55,1.87m-.89,0c0-.7-.79-1.12-1.55-1.47-.82.44-1.41.79-1.41,1.52s.72,1,1.45,1,1.51-.35,1.51-1.09m-2.35-4.06a.9.9,0,0,0-.32.7c0,.73.9,1.07,1.25,1.19.52-.24,1.05-.64,1.05-1.21a1,1,0,0,0-.19-.57,1.25,1.25,0,0,0-1.05-.42,1.73,1.73,0,0,0-.74.31"/></g></g></g><g id="Mark_7-3" data-name="Mark 7"><g class="cls-34"><g class="cls-34"><path class="cls-4" d="M281.18,72.66c0,3.53-2,6.39-4.47,6.39s-4.46-2.86-4.46-6.39,2-6.39,4.46-6.39,4.47,2.87,4.47,6.39m-4.47-5.09c-1.87,0-3.39,2.3-3.39,5.14s1.52,5.15,3.39,5.15,3.4-2.31,3.4-5.15-1.52-5.14-3.4-5.14"/><path class="cls-4" d="M274.76,69.47H279v.79A8.16,8.16,0,0,0,276.82,76h-1a9.38,9.38,0,0,1,2.08-5.67h-3.17Z"/></g></g></g><g id="Mark_6-3" data-name="Mark 6"><g class="cls-35"><g class="cls-35"><path class="cls-4" d="M259.14,72.66c0,3.53-2,6.39-4.47,6.39s-4.46-2.86-4.46-6.39,2-6.39,4.46-6.39,4.47,2.87,4.47,6.39m-4.47-5.09c-1.87,0-3.39,2.3-3.39,5.14s1.52,5.15,3.39,5.15,3.4-2.31,3.4-5.15-1.52-5.14-3.4-5.14"/><path class="cls-4" d="M255.69,70.85a.91.91,0,0,0-.94-.86c-1.29,0-1.42,1.68-1.47,2.35a2.27,2.27,0,0,1,1.52-.58,1.87,1.87,0,0,1,1.91,2.06,2.05,2.05,0,0,1-2.08,2.3,2,2,0,0,1-1.74-.92,4.65,4.65,0,0,1-.51-2.48,4.16,4.16,0,0,1,.68-2.63,2.15,2.15,0,0,1,1.66-.84,2.44,2.44,0,0,1,.88.17,1.84,1.84,0,0,1,1.1,1.43Zm-1.1,4.52a1.26,1.26,0,0,0,1.25-1.43c0-.29,0-1.44-1.2-1.44a1.72,1.72,0,0,0-1.36.72c0,1.12.31,2.15,1.31,2.15"/></g></g></g><g id="Mark_5-3" data-name="Mark 5"><g class="cls-36"><g class="cls-36"><path class="cls-4" d="M237.1,72.66c0,3.53-2,6.39-4.46,6.39s-4.47-2.86-4.47-6.39,2-6.39,4.47-6.39,4.46,2.87,4.46,6.39m-4.46-5.09c-1.88,0-3.4,2.3-3.4,5.14s1.52,5.15,3.4,5.15S236,75.55,236,72.71s-1.52-5.14-3.39-5.14"/><path class="cls-4" d="M231,69.4h3.47v.77h-2.76l-.19,2a2.19,2.19,0,0,1,1.26-.37,2,2,0,0,1,2.08,2.14,2.13,2.13,0,0,1-2.2,2.22,2.22,2.22,0,0,1-2.27-1.83h.95a1.24,1.24,0,0,0,1.26,1.13A1.35,1.35,0,0,0,234,74a1.4,1.4,0,0,0-1.39-1.56,1.29,1.29,0,0,0-1.14.65l-.77-.29Z"/></g></g></g><g id="Mark_4-3" data-name="Mark 4"><g class="cls-37"><g class="cls-37"><path class="cls-4" d="M215.06,72.66c0,3.53-2,6.39-4.46,6.39s-4.47-2.86-4.47-6.39,2-6.39,4.47-6.39,4.46,2.87,4.46,6.39m-4.46-5.09c-1.88,0-3.4,2.3-3.4,5.14s1.52,5.15,3.4,5.15S214,75.55,214,72.71s-1.52-5.14-3.39-5.14"/><path class="cls-4" d="M211.35,69.42H212v4.41h.83v.76H212v1.46h-.83V74.59h-3v-.93Zm-.14,1.46-2.2,3h2.2Z"/></g></g></g><g id="Mark_3-3" data-name="Mark 3"><g class="cls-38"><g class="cls-38"><path class="cls-4" d="M193,72.66c0,3.53-2,6.39-4.46,6.39s-4.46-2.86-4.46-6.39,2-6.39,4.46-6.39S193,69.14,193,72.66m-4.46-5.09c-1.87,0-3.39,2.3-3.39,5.14s1.52,5.15,3.39,5.15S192,75.55,192,72.71s-1.52-5.14-3.39-5.14"/><path class="cls-4" d="M187.64,72.19c1.43,0,1.57,0,1.82-.45a1.27,1.27,0,0,0,.22-.69A1,1,0,0,0,188.61,70a1,1,0,0,0-1,1h-.87a1.8,1.8,0,0,1,1.9-1.67,1.77,1.77,0,0,1,2,1.66,1.56,1.56,0,0,1-1,1.49,1.82,1.82,0,0,1,1.19,1.74,2,2,0,0,1-2.13,1.94,2.53,2.53,0,0,1-1.55-.53,2.45,2.45,0,0,1-.67-1.45h1a1.19,1.19,0,0,0,.74,1.11,1.2,1.2,0,0,0,1.68-1.15,1.24,1.24,0,0,0-1-1.27,9.54,9.54,0,0,0-1.26,0Z"/></g></g></g><g id="Mark_2-3" data-name="Mark 2"><g class="cls-39"><g class="cls-39"><path class="cls-4" d="M171,72.66c0,3.53-2,6.39-4.46,6.39s-4.46-2.86-4.46-6.39,2-6.39,4.46-6.39S171,69.14,171,72.66m-4.46-5.09c-1.87,0-3.39,2.3-3.39,5.14s1.52,5.15,3.39,5.15,3.39-2.31,3.39-5.15-1.52-5.14-3.39-5.14"/><path class="cls-4" d="M164.24,71.47a2.49,2.49,0,0,1,.66-1.56,2.23,2.23,0,0,1,1.52-.59,1.92,1.92,0,0,1,2.09,1.85,2.66,2.66,0,0,1-1.29,2.09c-1.44,1.16-1.64,1.32-1.85,2h3.21V76h-4.25A3.71,3.71,0,0,1,166,73.23c1-.9,1.59-1.37,1.59-2.1A1.11,1.11,0,0,0,166.48,70a1.28,1.28,0,0,0-.88.3,1.43,1.43,0,0,0-.4,1.17Z"/></g></g></g><g id="Mark_1-3" data-name="Mark 1"><g class="cls-40"><g class="cls-40"><path class="cls-4" d="M149,72.66c0,3.53-2,6.39-4.47,6.39S140,76.19,140,72.66s2-6.39,4.46-6.39S149,69.14,149,72.66m-4.47-5.09c-1.87,0-3.39,2.3-3.39,5.14s1.52,5.15,3.39,5.15,3.39-2.31,3.39-5.15-1.52-5.14-3.39-5.14"/><path class="cls-4" d="M142.91,69.93a1.66,1.66,0,0,0,1.35-.54H145V76h-.89V70.38a2.88,2.88,0,0,1-1.23.33Z"/></g></g></g><rect class="cls-41" x="25.75" y="0.5" width="47.3" height="18.05"/><path class="cls-4" d="M3.1,16.67H1.76V9.29a15.38,15.38,0,0,1-1,1.81A3.76,3.76,0,0,0,0,9.56,22.8,22.8,0,0,0,2.78,3.23l1.3.63c-.39,1.22-.45,1.37-1,2.77ZM9.15,4V5.26H6.7A11.21,11.21,0,0,1,6.4,7.1H8.81a11.51,11.51,0,0,1-4.05,9.39,3.19,3.19,0,0,0-1-1,10.22,10.22,0,0,0,2.72-3.28A6.73,6.73,0,0,0,4.81,11a5.19,5.19,0,0,1-.57.91,2.79,2.79,0,0,0-.87-1,11.6,11.6,0,0,0,2-5.58h-1V4ZM6.1,8.23a12.46,12.46,0,0,1-.63,1.59c.56.35,1.06.72,1.52,1.07a13,13,0,0,0,.55-2.66Zm4.66-3.3v8.24H9.53V4.93Zm2.37-1.3V15.22c0,1-.63,1.13-2.14,1.43a3.37,3.37,0,0,0-.66-1.43h1.22c.19,0,.27-.09.27-.28V3.63Z"/><path class="cls-4" d="M85.12,8.77l-.54,1.5a6.2,6.2,0,0,0-.42,1.67.93.93,0,0,0,0,.24l.12.75c0,.15,0,.37-.27.37-.53,0-1-1.56-1-3.54a17.08,17.08,0,0,1,.54-4.16,4.37,4.37,0,0,0,.08-.7c0-.47-.31-.75-.71-1l.13-.26c1.22.6,1.56,1.13,1.56,1.34s-.05.17-.18.38a11.64,11.64,0,0,0-.87,4.18,8.62,8.62,0,0,0,.15,1.58L84.9,8.66Zm.94-2.59A5.89,5.89,0,0,1,90.19,5a2.23,2.23,0,0,1,1.25.22.58.58,0,0,1,.21.38c0,.14-.09.23-.28.26L90.72,6a1.88,1.88,0,0,0-.58.19A10.85,10.85,0,0,0,88.3,7.43l-.16-.17,1.6-1.54a6.62,6.62,0,0,0-3.56.65Zm.35,3.87c.18,1.1.49,2.24,3.09,2.24.11,0,1.15,0,1.63-.08.08,0,.48-.14.53-.14s.47.38.47.6-.31.24-.4.24l-2.1.1a5.29,5.29,0,0,1-2.07-.37,2.64,2.64,0,0,1-1.39-2.57Z"/><path class="cls-4" d="M96.66,10.72V9.91h3.65v.81Z"/><path class="cls-4" d="M104.68,13.65a2.65,2.65,0,0,1-2.85-2.42,3.09,3.09,0,0,1,2-2.58,8.17,8.17,0,0,1-1-.76,2.24,2.24,0,0,1-.6-1.54A2.41,2.41,0,0,1,104.7,4a2.29,2.29,0,0,1,2.48,2.09,2.61,2.61,0,0,1-1.67,2.17,5.55,5.55,0,0,1,1.36,1,2.5,2.5,0,0,1,.68,1.72A2.77,2.77,0,0,1,104.68,13.65Zm1.15-3.7-1.7-1.09a2.74,2.74,0,0,0-1.61,2.37,2.09,2.09,0,0,0,2.18,2,2,2,0,0,0,2.16-1.77A1.89,1.89,0,0,0,105.83,10Zm-1.15-5.59c-1,0-1.87.59-1.87,1.45a1.32,1.32,0,0,0,.69,1.13l1.71,1.12a2.38,2.38,0,0,0,1.36-2A1.81,1.81,0,0,0,104.68,4.36Z"/><path class="cls-4" d="M111.67,13.65c-1.51,0-2.79-.92-2.79-2.2a.78.78,0,1,1,1.55,0,.76.76,0,0,1-.91.77,2.48,2.48,0,0,0,2.1,1.07c.61,0,1.56-.41,1.56-2.31,0-1.38-.51-2.33-1.64-2.33h-.6c-.24,0-.34,0-.34-.15s.1-.16.21-.17l.54,0a1.34,1.34,0,0,0,1.22-.73,3.56,3.56,0,0,0,.39-1.6c0-1.26-.76-1.57-1.32-1.57a2.22,2.22,0,0,0-1.83.87c.2,0,.85,0,.85.7a.68.68,0,0,1-.7.72.67.67,0,0,1-.7-.73A2.18,2.18,0,0,1,111.69,4c1.32,0,2.54.79,2.54,1.94a2.69,2.69,0,0,1-1.93,2.46A2.7,2.7,0,0,1,114.6,11,2.83,2.83,0,0,1,111.67,13.65Z"/><path class="cls-4" d="M122.37,3.63h.56c1,0,1.36.33,1.36.47s0,.11-.13.32a8.74,8.74,0,0,0-.21,2c0,.84.07,1.29.35,1.51l.89-.33,1.1-.37.52-.19.51-.19a2.24,2.24,0,0,1,.36-.16c.12,0,.75.48.75.7s-.11.15-.19.16l-.8.11a22.28,22.28,0,0,0-3.9,1.1c-1.81.73-2.41,1.49-2.41,2.37,0,1.52,1.78,1.52,3.88,1.52.3,0,.85,0,1.16,0l.86-.05a3.13,3.13,0,0,0,.89-.18,1,1,0,0,1,.28-.12c.14,0,.66.42.66.64s-.19.22-.32.23a20,20,0,0,1-3.1.21,14.2,14.2,0,0,1-3.53-.31,1.83,1.83,0,0,1-1.31-1.8c0-1.73,1.94-2.61,3.28-3.15-.38-.35-.59-.6-.59-2,0-.21,0-1.16,0-1.38,0-.68-.39-.72-1-.77Z"/><path class="cls-4" d="M130.82,7.7a12.74,12.74,0,0,0,1.68-2.32,12.91,12.91,0,0,0,1-2.47l.81.31c.11,0,.26.11.26.24s-.08.14-.47.2l-.24.54h1l.33-.38.7.44c.08,0,.22.15.22.21s0,.12-.49.22l-.94,1.42h.82l.22-.36.72.4c.07,0,.23.12.23.21s-.11.15-.34.25V13a1.11,1.11,0,0,1-1.14,1.1s-.15,0-.15,0c-.05-.49-.05-.52-.41-.58l-.49-.07,0-.26h1.52V10.51H132.9a6.06,6.06,0,0,1-1.71,3.61L131,14a6,6,0,0,0,1-2,7.76,7.76,0,0,0,.31-2.29V6.58A9.16,9.16,0,0,1,131,7.85Zm2.86-3.17c-.22.45-.54,1-.79,1.38l.31.2h1.15l.6-1.58Zm-.74,3.85v1.79h1V8.38Zm0-1.92V8h1V6.46Zm1.59,0V8h1.18V6.46Zm0,1.92v1.79h1.18V8.38Zm2.14-3.85-.21-.34h4.31l.32-.54.82.56c.15.1.19.17.19.25s-.05.13-.45.19c-.07.49-.13.85-.17,1.15a3,3,0,0,1-.18.76,1.39,1.39,0,0,1-1,.8c-.17,0-.18-.07-.22-.39,0-.12-.12-.17-.29-.22l-.56-.17V6.34h1.33a3.7,3.7,0,0,0,.4-1.81h-1.8a4.89,4.89,0,0,1-1.05,2,3.41,3.41,0,0,1-1.3,1.06l-.16-.19a3.94,3.94,0,0,0,.69-.65,4.85,4.85,0,0,0,1-2.26Zm.13,6.83-.18-.34H139V9.52h-1.34a12.15,12.15,0,0,1-.73,1.24l-.21-.09a10.29,10.29,0,0,0,.88-3l.75.25c.22.08.24.14.24.2s-.17.18-.41.22l-.36.87H139V7.54l.87.09c.06,0,.3,0,.3.18s0,.11-.44.27V9.17h.68l.55-.64.78.72v.27h-2V11h1l.69-.78.84.84v.28h-2.48V14.2l-.73.12v-3Z"/><path class="cls-4" d="M143.3,10.24a15.3,15.3,0,0,0,2.85-1.78A10.61,10.61,0,0,0,148.32,6l1,.42a.21.21,0,0,1,.17.19c0,.08,0,.09-.37.2a10,10,0,0,0,5.2,2.73l0,.21a1.14,1.14,0,0,0-1,.63,13.21,13.21,0,0,1-4.45-3.5l-.08,0c-.09.1-.49.48-.74.71a15,15,0,0,1-4.64,2.82ZM143.6,7a8.82,8.82,0,0,0,1.85-4l1.12.45a.17.17,0,0,1,.14.16c0,.11,0,.12-.49.19l-.28.57h1.65l.44-.6.82.65v.28h-2.48c.72.69.91.87.91,1.39a.5.5,0,0,1-.47.55c-.23,0-.25-.1-.43-1.1a1.67,1.67,0,0,0-.41-.84h-.23a7.54,7.54,0,0,1-2,2.44Zm2.26,7.13,0-4,1,.45H151l.29-.43.79.51s.17.13.17.24,0,.11-.4.2v2.68l-.78.12v-.6h-4.46V14Zm.73-4.78L146.46,9h2.76l.52-.58.86.69v.23Zm0,1.61v2h4.45v-2Zm1.94-5a10.14,10.14,0,0,0,1.07-3l1,.3a.23.23,0,0,1,.16.2c0,.09,0,.1-.4.23l-.35.68h2.5l.49-.69,1,.83v.2H150.9c.28.18,1,.63,1,1.32a.54.54,0,0,1-.53.55.27.27,0,0,1-.27-.26l-.17-.78a1.76,1.76,0,0,0-.42-.83h-.69a11,11,0,0,1-1,1.32Z"/><path class="cls-4" d="M161.4,5.66c-1.43.14-2.51.31-3.08.42,0,0-1.23.27-1.23.27s-.24.17-.29.17c-.22,0-.74-.38-1.21-1.34l.18-.12a1.13,1.13,0,0,0,1.12.54A9.36,9.36,0,0,0,158,5.51l1.18-.13c.67-.09,1.49-.16,2.22-.24V4.41c0-.73-.14-.9-1.06-1.11V3.08c1.27,0,2.08.48,2.08.66s-.16.25-.18.3a3.31,3.31,0,0,0-.14,1L164.22,5c.15,0,.88,0,.94-.07a3.55,3.55,0,0,1,.46-.21.45.45,0,0,1,.25.12l.33.3c.05,0,.34.29.34.46a.19.19,0,0,1-.21.18,2.77,2.77,0,0,1-.36,0c-.22,0-.63-.06-.74-.08l-1.12,0c-.31,0-.64,0-.94,0a9.21,9.21,0,0,0-1.11,0V7.7a2.48,2.48,0,0,1,.27.66,6.62,6.62,0,0,1,.12,1.42c0,2.64-1,3.42-3.47,4.13l-.08-.23c2.16-.85,2.64-1.72,2.76-3.29a1.56,1.56,0,0,1-1.23.56,1.76,1.76,0,0,1-1.75-1.86,1.91,1.91,0,0,1,1.81-2,2,2,0,0,1,.95.23Zm-.84,1.73c-.83,0-1.16.83-1.16,1.57,0,1.26.8,1.54,1.22,1.54.73,0,1.07-.6,1.07-1.49a2.48,2.48,0,0,0-.26-1.13A1,1,0,0,0,160.56,7.39Z"/><path class="cls-4" d="M171.36,8.53a7.72,7.72,0,0,1,3.32-.89,2.56,2.56,0,0,1,2.87,2.6c0,1.65-1.34,3.11-4,3.11-2,0-2.58-.92-2.58-1.52,0-.75.79-1.06,1.38-1.06a3.26,3.26,0,0,1,2.81,1.77,2.59,2.59,0,0,0,.95-.66,2.84,2.84,0,0,0,.68-1.8,2.07,2.07,0,0,0-2.34-2,6.86,6.86,0,0,0-4.87,2.5c0,.06-.19.26-.31.26s-.44-.42-.44-.66c0-.09.1-.18.26-.27a69.5,69.5,0,0,0,5.32-5.25c-.52.06-.81.1-1.24.17a6.93,6.93,0,0,0-1.72.52s-.23.22-.29.22A2.38,2.38,0,0,1,170,4l.18-.08c.35.49.6.65,1,.65.22,0,.78-.08,1-.1l2.1-.26a.66.66,0,0,0,.25-.06c.26-.17.29-.18.35-.18s.7.52.7.72,0,.07-.31.17a17.92,17.92,0,0,0-1.54,1.33Zm.7,2.77a.62.62,0,0,0-.68.6c0,.53.7,1,2,1a4.29,4.29,0,0,0,1-.14A3.07,3.07,0,0,0,172.06,11.3Z"/><path class="cls-4" d="M184.53,9.71,181,11.22c-.12.26-.15.34-.24.34s-.13-.07-.19-.14l-.55-.76,1.79-.45V6.64h-1.4l-.16-.34h1.56V3.12l.93.11c.1,0,.24.06.24.18s0,.11-.4.21V6.3h.66l.47-.73.85.78v.29h-2V10l1.83-.52Zm-2.1,2.51a7.79,7.79,0,0,0,3.08-3.48H183.8l-.2-.34h5.84l.57-.66.9.72v.28h-4.54l-.33.54-.27.46h3.8l.2-.37.78.41c.06,0,.18.11.18.2s-.1.16-.38.31a14.72,14.72,0,0,1-.51,3,1.47,1.47,0,0,1-1.19.8c-.16,0-.18-.08-.18-.21,0-.37,0-.4-.42-.47l-.64-.12V13h1.71a14.32,14.32,0,0,0,.51-2.95h-.88a7.87,7.87,0,0,1-3.68,3.9l-.15-.2a7.75,7.75,0,0,0,3-3.7h-.81a7.45,7.45,0,0,1-3.93,3.53l-.1-.21a7.52,7.52,0,0,0,2.17-1.77,5.24,5.24,0,0,0,1-1.55h-.83a8.11,8.11,0,0,1-2.95,2.32ZM184.92,8V3.22l.87.4h3l.28-.47.73.42c.19.1.24.17.24.26s-.05.11-.38.31V7.7l-.76.11V7.36h-3.18v.55Zm.75-2.75h3.18V4h-3.18Zm0,1.74h3.18V5.61h-3.18Z"/><path class="cls-4" d="M192.27,8.3a15,15,0,0,0,3-2.87A14.56,14.56,0,0,0,196.92,3l1.32.21c.09,0,.2.09.2.18s-.11.13-.36.18a11.64,11.64,0,0,0,5.13,3.75l-.05.16a1,1,0,0,0-.83.56,10,10,0,0,1-4.5-4.42l-.17.05a15.88,15.88,0,0,1-5.26,4.81ZM194.41,14V8.94l1,.43h4.68l.35-.52.83.54c.13.09.2.16.2.25s-.14.16-.39.2v3.83l-.77.07V13.3h-5.11v.6Zm.38-6.88h3.89l.59-.69,1,.75v.3h-5.34Zm.39,2.62v3.21h5.11V9.73Z"/><path class="cls-4" d="M42.58,7.51a12.59,12.59,0,0,1-2.3,2.72l-.83-.76a7.19,7.19,0,0,0,2.42-2.68H37.71c-.81,0-2.05,0-3.08.07v-1c.83.06,2.1.08,3,.08h2.49a19,19,0,0,0,2.41-.2l.77,1C43.1,6.84,43,6.87,42.58,7.51Zm-3.28.43c-.17,1.82-.37,4-2.78,5.8l-1-.67a5.73,5.73,0,0,0,1.94-1.87,5.4,5.4,0,0,0,.76-3.11c0-.23,0-.4,0-.76l1.13.11c.23,0,.28.16.28.24S39.55,7.8,39.3,7.94Z"/><path class="cls-4" d="M52.18,6.2a25.78,25.78,0,0,1-2.09,2v2.85c0,.75,0,.85,0,1.74a11.19,11.19,0,0,0,.07,1.2H49.09c0-.22,0-.46,0-.5,0-.4,0-2.17,0-2.53V9a16.53,16.53,0,0,1-2.87,1.62l-1-.82a10.3,10.3,0,0,0,3.57-1.84,11.86,11.86,0,0,0,2.77-2.84l.95.72a.26.26,0,0,1,.11.19C52.69,6.18,52.5,6.18,52.18,6.2Z"/><path class="cls-4" d="M63.22,8.35a11.07,11.07,0,0,1-1.06,3.14,7.19,7.19,0,0,1-2.85,2.8l-1-.7a4.69,4.69,0,0,0,2.34-1.67,6,6,0,0,0,1.28-2.34,6.15,6.15,0,0,0,.32-1.9H57v1.2c0,.15,0,.88.06,1.4H56a9.82,9.82,0,0,0,.09-1.1V8A5.72,5.72,0,0,0,56,6.83l1.34.08h1.9V6.14c0-.43,0-.85-.05-1.29L60.24,5c.09,0,.28,0,.28.19s-.16.17-.24.18a8.1,8.1,0,0,0-.08,1v.52h.4c.51,0,1.06,0,1.41,0a1.2,1.2,0,0,0,.71-.21l.79.7A2.31,2.31,0,0,0,63.22,8.35Z"/><ellipse class="cls-42" cx="78.17" cy="33.43" rx="4.2" ry="6.33"/><ellipse class="cls-42" cx="299.52" cy="53.31" rx="4.2" ry="6.14"/><ellipse class="cls-42" cx="189.18" cy="72.66" rx="4.2" ry="6.14"/></g></g></svg>