<?xml version="1.0" encoding="utf-8"?>
<!-- Generator: Adobe Illustrator 25.0.1, SVG Export Plug-In . SVG Version: 6.00 Build 0)  -->
<svg version="1.1" id="レイヤー_1" xmlns="http://www.w3.org/2000/svg" xmlns:xlink="http://www.w3.org/1999/xlink" x="0px"
	 y="0px" viewBox="0 0 320.6 47.9" style="enable-background:new 0 0 320.6 47.9;" xml:space="preserve">
<style type="text/css">
	.st0{fill:#FFFFFF;stroke:#211815;stroke-miterlimit:10;}
	.st1{fill:none;stroke:#211815;stroke-width:0.5;stroke-miterlimit:10;}
	.st2{fill:#211815;}
	.st3{clip-path:url(#SVGID_2_);}
	.st4{clip-path:url(#SVGID_4_);}
	.st5{clip-path:url(#SVGID_6_);}
	.st6{clip-path:url(#SVGID_8_);}
	.st7{clip-path:url(#SVGID_10_);}
	.st8{clip-path:url(#SVGID_12_);}
	.st9{clip-path:url(#SVGID_14_);}
	.st10{clip-path:url(#SVGID_16_);}
	.st11{clip-path:url(#SVGID_18_);}
	.st12{clip-path:url(#SVGID_20_);}
	.st13{clip-path:url(#SVGID_22_);}
	.st14{clip-path:url(#SVGID_24_);}
	.st15{clip-path:url(#SVGID_26_);}
	.st16{clip-path:url(#SVGID_28_);}
	.st17{clip-path:url(#SVGID_30_);}
	.st18{clip-path:url(#SVGID_32_);}
	.st19{clip-path:url(#SVGID_34_);}
	.st20{clip-path:url(#SVGID_36_);}
	.st21{opacity:0.64;fill:#211815;enable-background:new    ;}
</style>
<g id="レイヤー_2_1_">
	<g id="レイヤー_1-2">
		<rect x="30.6" y="0.5" class="st0" width="289.6" height="46.9"/>
		<rect x="104.3" y="0.5" class="st1" width="215.8" height="46.9"/>
		<rect x="30.6" y="18.8" class="st1" width="289.6" height="28.6"/>
		<path class="st2" d="M171.4,4.4c-0.1,0.2-0.3,0.6-0.4,0.8h1.3l0.1-0.1l0.7,0.7c-0.3,0.4-0.4,0.5-1,1.4h1.5v0.4
			c0.9-0.4,1.5-1.2,1.6-2.1h-1.4V4.6h5c0,0.9,0,1.9-0.2,2.8c-0.2,0.3-0.5,0.5-1.5,0.7c-0.1-0.4-0.2-0.7-0.4-1.1h0.7
			c0.2,0,0.2-0.1,0.3-0.2c0.1-0.4,0.1-0.9,0.1-1.3h-1.5c-0.1,1.3-0.9,2.4-2.1,2.9c-0.1-0.3-0.3-0.5-0.6-0.7v6.2
			c-0.1,0.9-0.3,1-1.6,1.3c-0.1-0.4-0.2-0.8-0.5-1.1h0.9c0.1,0,0.2-0.1,0.2-0.2v-1.6h-2.5c0,1.1-0.4,2.1-1,3
			c-0.2-0.3-0.4-0.6-0.7-0.9c0.9-1.9,0.9-2.4,0.8-6.5L169,8.2c-0.2-0.3-0.4-0.6-0.7-0.8c0.9-0.9,1.7-2.1,2.2-3.3L171.4,4.4z
			 M171.1,7.2c0.2-0.4,0.5-0.8,0.7-1.1h-1.2c-0.2,0.4-0.5,0.8-0.8,1.1H171.1z M171.1,9.9h-0.8v1.3h0.8L171.1,9.9z M171.1,7.9h-0.8V9
			h0.8V7.9z M172.7,7.9h-0.8V9h0.8V7.9z M172.7,9.9h-0.8v1.3h0.8V9.9z M176.2,8.2h1.1v1.2h1.7v0.9h-1.7v1.2h2.1v0.9h-2.1v2.6h-1.1
			v-2.6H174v-0.9h2.2v-1.2h-0.9l-0.4,0.7c-0.3-0.1-0.5-0.3-0.9-0.5c0.4-0.7,0.8-1.4,1-2.2l1,0.4l-0.2,0.7h0.6L176.2,8.2z"/>
		<path class="st2" d="M207.3,4.4c-0.1,0.2-0.2,0.4-0.4,0.7h2.5V6h-1.3c0.2,0.3,0.3,0.6,0.5,0.9l-1,0.4c-0.2-0.4-0.4-0.9-0.6-1.3
			h-0.6c-0.4,0.6-0.8,1.1-1.4,1.6c-0.2-0.3-0.5-0.6-0.7-0.8c0.8-0.8,1.5-1.7,2-2.7L207.3,4.4z M211.7,4.4c-0.1,0.2-0.2,0.5-0.3,0.7
			h3.7V6h-2.2c0.2,0.3,0.4,0.6,0.6,1l-1,0.5c-0.2-0.5-0.4-1-0.7-1.5H211c-0.2,0.4-0.5,0.8-0.8,1.2h0.5l-0.1,0.2c1.5,1.2,3.2,2,5,2.4
			c-0.2,0.3-0.4,0.7-0.5,1.1c-0.9-0.3-1.7-0.6-2.6-1.1v0.7h-5.3V9.9c-0.7,0.4-1.4,0.8-2.1,1.1c-0.2-0.4-0.4-0.7-0.6-1
			c1.8-0.6,3.4-1.6,4.8-3l0.9,0.1c-0.2-0.2-0.5-0.4-0.7-0.6c0.6-0.8,1.1-1.6,1.4-2.5L211.7,4.4z M206,11.2h7.5v3.7h-1.1v-0.4h-5.2
			V15H206V11.2z M212.4,12.1h-5.2v1.4h5.2V12.1z M211.8,9.5c-0.7-0.4-1.4-0.9-2-1.5c-0.6,0.5-1.3,1-2,1.5H211.8z"/>
		<path class="st2" d="M241.7,4.2h1v2.4h0.8v1.1h-0.8v0.9c0.3,0.3,0.6,0.6,1,0.9c-0.2,0.3-0.4,0.6-0.5,1c-0.2-0.1-0.3-0.3-0.5-0.5
			V15h-1v-4.7c-0.3,0.6-0.6,1.2-1,1.8c-0.1-0.4-0.3-0.8-0.5-1.2c0.6-1,1.1-2.1,1.4-3.2h-1.1V6.6h1.2L241.7,4.2z M243.8,4.5h2.9v3.4
			h-2V15h-0.9L243.8,4.5z M245.9,5.3h-1.1v0.6h1.1V5.3z M245.9,6.5h-1.1v0.6h1.1V6.5z M246.8,8.1h0.9v0.4h1.8v0.6h-1.8v0.4h1.7V12
			h-1.7v0.3c0.4,0.3,0.9,0.5,1.4,0.6c-0.2,0.2-0.3,0.5-0.4,0.8c-0.4-0.1-0.7-0.3-1-0.5v1.3h-0.9V13c-0.4,0.4-0.8,0.7-1.2,1
			c-0.2-0.3-0.4-0.5-0.7-0.7c0.6-0.3,1.2-0.8,1.7-1.3h-1.3V9.6h1.4V9.2h-1.7V8.5h1.7V8.1z M246.8,10.1h-0.6v0.5h0.6V10.1z M246.8,11
			h-0.6v0.5h0.6V11z M247.6,4.5h3.2V14c0,0.6-0.2,0.8-1.5,1.1c-0.1-0.4-0.2-0.8-0.4-1.2h0.8c0.1,0,0.2-0.1,0.2-0.1c0,0,0,0,0,0V7.8
			h-2.2L247.6,4.5z M248.5,10.1h-0.8v0.5h0.8V10.1z M248.5,11h-0.8v0.5h0.8V11z M249.8,5.3h-1.3v0.6h1.3V5.3z M249.8,6.5h-1.3v0.6
			h1.3V6.5z"/>
		<path class="st2" d="M47.8,4.4c-0.1,0.2-0.3,0.6-0.4,0.8h1.3l0.2-0.1l0.7,0.7c-0.3,0.4-0.4,0.5-1,1.4h1.5v0.4
			c0.9-0.4,1.5-1.2,1.6-2.1h-1.4V4.6h5c0,0.9,0,1.9-0.2,2.8c-0.2,0.3-0.5,0.5-1.5,0.7c-0.1-0.4-0.2-0.7-0.4-1h0.7
			c0.2,0,0.2-0.1,0.3-0.2c0.1-0.4,0.1-0.9,0.1-1.3h-1.5c-0.1,1.3-0.9,2.4-2.1,2.9c-0.1-0.3-0.3-0.5-0.6-0.7v6.2
			c-0.1,0.9-0.3,1-1.7,1.3c-0.1-0.4-0.3-0.8-0.5-1.1h0.9c0.1,0,0.2-0.1,0.2-0.2v-1.6h-2.5c-0.1,1.1-0.4,2.1-1,3
			c-0.2-0.3-0.4-0.6-0.7-0.9c0.9-1.9,0.9-2.4,0.8-6.5l-0.4,0.4c-0.2-0.3-0.4-0.6-0.7-0.8c0.9-0.9,1.7-2.1,2.2-3.3L47.8,4.4z
			 M47.5,7.2C47.8,6.8,48,6.4,48.2,6H47c-0.2,0.4-0.5,0.8-0.8,1.1H47.5z M47.5,9.9h-0.8v1.3h0.8L47.5,9.9z M47.5,7.9h-0.8V9h0.8V7.9
			z M49.1,7.9h-0.8V9h0.8V7.9z M49.1,9.9h-0.8v1.3h0.8V9.9z M52.5,8.2h1.1v1.2h1.7v0.9h-1.7v1.2h2.1v0.9h-2.1v2.6h-1.1v-2.6h-2.2
			v-0.9h2.2v-1.2h-0.9l-0.4,0.7c-0.3-0.1-0.5-0.3-0.9-0.5c0.4-0.7,0.7-1.4,1-2.2l1,0.4L52,9.4h0.6L52.5,8.2z"/>
		<path class="st2" d="M59.8,4.4c-0.1,0.2-0.2,0.4-0.3,0.7h2.5V6h-1.3c0.2,0.3,0.3,0.6,0.5,0.9l-1,0.4c-0.2-0.4-0.4-0.9-0.6-1.3
			h-0.6c-0.4,0.6-0.8,1.1-1.3,1.6C57.3,7.3,57,7,56.8,6.7c0.8-0.8,1.5-1.7,2-2.7L59.8,4.4z M64.1,4.4c-0.1,0.2-0.2,0.5-0.3,0.7h3.7
			V6h-2.2c0.2,0.3,0.4,0.6,0.6,1l-1,0.5c-0.2-0.5-0.4-1-0.7-1.5h-0.8c-0.2,0.4-0.5,0.8-0.8,1.2h0.5l-0.2,0.2c1.5,1.2,3.2,2,5,2.4
			c-0.2,0.3-0.4,0.7-0.5,1.1c-0.9-0.3-1.7-0.6-2.6-1.1v0.7h-5.3V9.9c-0.7,0.4-1.4,0.8-2.1,1.1c-0.2-0.4-0.4-0.7-0.6-1
			c1.8-0.6,3.4-1.6,4.8-3l0.8,0.1c-0.2-0.2-0.5-0.4-0.7-0.6c0.6-0.8,1.1-1.6,1.4-2.5L64.1,4.4z M58.5,11.2h7.5v3.7h-1.1v-0.4h-5.2
			V15h-1.1V11.2z M64.8,12.1h-5.2v1.4h5.2V12.1z M64.2,9.5c-0.7-0.4-1.4-0.9-2-1.5c-0.6,0.5-1.3,1-2,1.5H64.2z"/>
		<path class="st2" d="M77.2,7h2.3v0.9h-3.7c1.2,1.2,2.6,2,4.2,2.5c-0.3,0.3-0.6,0.6-0.7,1c-0.5-0.2-0.9-0.4-1.2-0.6V15h-1v-0.4
			h-5.1V15h-1.1v-4.3c-0.4,0.3-0.9,0.5-1.4,0.7c-0.1-0.3-0.4-0.6-0.7-0.9c1.5-0.6,2.9-1.5,4.1-2.6h-3.7V7h2.4
			c-0.2-0.3-0.4-0.6-0.6-0.9l0.8-0.3c-0.6,0-1,0-1.5,0c-0.1-0.3-0.2-0.6-0.4-0.9c2.8,0,5.6-0.2,8.3-0.6l0.7,0.9
			c-0.6,0.1-1.2,0.2-1.7,0.2L78,5.8L77.2,7z M77.1,10.3c-0.9-0.5-1.6-1.2-2.3-2V10h-1V8.3c-0.7,0.8-1.4,1.4-2.2,2L77.1,10.3z
			 M73.8,11.1h-1.9V12h1.9V11.1z M73.8,12.8h-1.9v0.9h1.9V12.8z M73.8,5.6c-0.4,0-1.3,0.1-1.9,0.1c0.2,0.4,0.6,1,0.8,1.3h1.1V5.6z
			 M77,11.1h-2.2V12H77V11.1z M77,12.8h-2.2v0.9H77V12.8z M76.1,7c0.3-0.5,0.6-1.1,0.8-1.6l-2,0.2V7H76.1z"/>
		<path class="st2" d="M81,8.7h10.7v1h-7.4c-0.1,0.3-0.2,0.6-0.3,1h6.2c-0.1,1.1-0.2,2.3-0.4,3.4c-0.2,0.6-0.4,0.9-2.4,1
			c-0.1-0.4-0.2-0.8-0.3-1.1h1.3c0.3,0,0.3-0.2,0.4-0.4c0.1-0.4,0.1-1.1,0.2-1.9h-5.1c-0.1,0.3-0.2,0.6-0.3,1l-1.2-0.3
			c0.4-1.4,0.4-1.6,0.7-2.7H81V8.7z M82.7,4.6h7.4v3.4h-7.5L82.7,4.6z M88.9,5.6h-5.1V7h5.1L88.9,5.6z"/>
		<path class="st2" d="M57.8,29.5c0.7,0,1.4-0.2,1.9-0.8h1.1v9.2h-1.2v-7.8c-0.5,0.3-1.1,0.4-1.7,0.5L57.8,29.5z"/>
		<path class="st2" d="M69,33.4c0-1.2,0.3-2.4,0.9-3.4c0.5-0.9,1.4-1.4,2.4-1.4c1.2,0.1,2.3,0.8,2.8,1.9c0.4,0.9,0.5,1.9,0.6,2.9
			c0,1.3,0,4.9-3.3,4.9C70.6,38.2,69,36.9,69,33.4z M70.7,36.2c0.3,0.6,1,0.9,1.6,0.9c2,0,2-2.2,2-3.6c0-2.9-1.1-3.9-2-3.9
			c-1.2,0-1.6,1.3-1.8,1.7c-0.2,0.7-0.3,1.4-0.3,2.2C70.2,34.4,70.4,35.3,70.7,36.2L70.7,36.2z"/>
		<g id="Mark_9">
			<g>
				<defs>
					<rect id="SVGID_1_" x="286.1" y="18.9" width="24" height="27.9"/>
				</defs>
				<clipPath id="SVGID_2_">
					<use xlink:href="#SVGID_1_"  style="overflow:visible;"/>
				</clipPath>
				<g class="st3">
					<g>
						<defs>
							<rect id="SVGID_3_" x="286.1" y="18.9" width="24" height="27.9"/>
						</defs>
						<clipPath id="SVGID_4_">
							<use xlink:href="#SVGID_3_"  style="overflow:visible;"/>
						</clipPath>
						<g class="st4">
							<path class="st2" d="M302.6,32.8c0,3.5-2,6.4-4.5,6.4s-4.5-2.9-4.5-6.4s2-6.4,4.5-6.4S302.6,29.3,302.6,32.8 M298.1,27.7
								c-1.9,0-3.4,2.3-3.4,5.1s1.5,5.1,3.4,5.1s3.4-2.3,3.4-5.1S300,27.7,298.1,27.7"/>
							<path class="st2" d="M297,34.7c0.1,0.5,0.5,0.9,1,0.9c0.4,0,0.7-0.2,0.9-0.5c0.3-0.6,0.5-1.2,0.5-1.9
								c-0.4,0.4-0.9,0.6-1.5,0.6c-1.1,0-1.9-0.9-1.9-1.9c0,0,0,0,0-0.1c-0.1-1.2,0.7-2.2,1.9-2.3c0.1,0,0.1,0,0.2,0
								c0.7,0,1.4,0.4,1.8,1c0.3,0.7,0.4,1.4,0.4,2.2c0,1.6-0.3,3.6-2.3,3.6c-0.4,0-0.8-0.1-1.2-0.3c-0.4-0.3-0.7-0.7-0.8-1.2
								L297,34.7z M298,33c0.4,0,0.8-0.2,1.1-0.5c0.1-0.2,0.2-0.3,0.2-0.5c0.1-0.6-0.2-1.2-0.6-1.6c-0.5-0.4-1.3-0.4-1.8,0.2
								c-0.3,0.3-0.3,0.7-0.2,1.1c-0.1,0.6,0.3,1.2,0.9,1.3C297.8,33,297.9,33,298,33"/>
						</g>
					</g>
				</g>
			</g>
		</g>
		<g id="_8">
			<g>
				<defs>
					<rect id="SVGID_5_" x="264" y="18.9" width="24" height="27.9"/>
				</defs>
				<clipPath id="SVGID_6_">
					<use xlink:href="#SVGID_5_"  style="overflow:visible;"/>
				</clipPath>
				<g class="st5">
					<g>
						<defs>
							<rect id="SVGID_7_" x="264" y="18.9" width="24" height="27.9"/>
						</defs>
						<clipPath id="SVGID_8_">
							<use xlink:href="#SVGID_7_"  style="overflow:visible;"/>
						</clipPath>
						<g class="st6">
							<path class="st2" d="M280.5,32.8c0,3.5-2,6.4-4.5,6.4s-4.5-2.9-4.5-6.4s2-6.4,4.5-6.4S280.5,29.3,280.5,32.8 M276.1,27.7
								c-1.9,0-3.4,2.3-3.4,5.1s1.5,5.1,3.4,5.1s3.4-2.3,3.4-5.1S277.9,27.7,276.1,27.7"/>
							<path class="st2" d="M278.4,34.5c0,1.1-0.9,1.8-2.4,1.8c-1.1,0-2.3-0.5-2.3-1.8c0.1-0.8,0.6-1.5,1.4-1.8
								c-0.7-0.2-1.1-0.9-1.1-1.6c0-1,1-1.6,2-1.6s2,0.5,2,1.6c0,0.9-0.6,1.2-1.2,1.5C277.8,33.1,278.5,33.6,278.4,34.5 M277.6,34.5
								c0-0.7-0.8-1.1-1.5-1.5c-0.8,0.4-1.4,0.8-1.4,1.5s0.7,1,1.4,1S277.6,35.2,277.6,34.5 M275.2,30.4c-0.2,0.2-0.3,0.4-0.3,0.7
								c0,0.7,0.9,1.1,1.2,1.2c0.5-0.2,1-0.6,1-1.2c0-0.2-0.1-0.4-0.2-0.6c-0.3-0.3-0.7-0.5-1-0.4C275.7,30.1,275.4,30.3,275.2,30.4
								"/>
						</g>
					</g>
				</g>
			</g>
		</g>
		<g id="Mark_7">
			<g>
				<defs>
					<rect id="SVGID_9_" x="242" y="18.9" width="24" height="27.9"/>
				</defs>
				<clipPath id="SVGID_10_">
					<use xlink:href="#SVGID_9_"  style="overflow:visible;"/>
				</clipPath>
				<g class="st7">
					<g>
						<defs>
							<rect id="SVGID_11_" x="242" y="18.9" width="24" height="27.9"/>
						</defs>
						<clipPath id="SVGID_12_">
							<use xlink:href="#SVGID_11_"  style="overflow:visible;"/>
						</clipPath>
						<g class="st8">
							<path class="st2" d="M258.5,32.8c0,3.5-2,6.4-4.5,6.4s-4.5-2.9-4.5-6.4s2-6.4,4.5-6.4S258.5,29.3,258.5,32.8 M254,27.7
								c-1.9,0-3.4,2.3-3.4,5.2s1.5,5.1,3.4,5.1s3.4-2.3,3.4-5.1S255.9,27.7,254,27.7"/>
							<path class="st2" d="M252.1,29.6h4.2v0.8c-1.4,1.6-2.2,3.6-2.1,5.7h-1c0-2.1,0.8-4.1,2.1-5.7H252L252.1,29.6z"/>
						</g>
					</g>
				</g>
			</g>
		</g>
		<g id="Mark_6">
			<g>
				<defs>
					<rect id="SVGID_13_" x="220" y="18.9" width="24" height="27.9"/>
				</defs>
				<clipPath id="SVGID_14_">
					<use xlink:href="#SVGID_13_"  style="overflow:visible;"/>
				</clipPath>
				<g class="st9">
					<g>
						<defs>
							<rect id="SVGID_15_" x="220" y="18.9" width="24" height="27.9"/>
						</defs>
						<clipPath id="SVGID_16_">
							<use xlink:href="#SVGID_15_"  style="overflow:visible;"/>
						</clipPath>
						<g class="st10">
							<path class="st2" d="M236.4,32.8c0,3.5-2,6.4-4.5,6.4s-4.5-2.9-4.5-6.4s2-6.4,4.5-6.4S236.4,29.3,236.4,32.8 M232,27.7
								c-1.9,0-3.4,2.3-3.4,5.2s1.5,5.1,3.4,5.1s3.4-2.3,3.4-5.1S233.9,27.7,232,27.7"/>
							<path class="st2" d="M233,31c0-0.5-0.4-0.9-0.9-0.9c-1.3,0-1.4,1.7-1.5,2.4c0.4-0.4,1-0.6,1.5-0.6c1,0,1.9,0.8,1.9,1.9
								c0,0.1,0,0.2,0,0.2c0.1,1.2-0.7,2.2-1.9,2.3c-0.8,0.1-1.5-0.3-1.9-0.9c-0.4-0.8-0.6-1.6-0.5-2.5c-0.1-0.9,0.2-1.9,0.7-2.6
								c0.4-0.5,1-0.8,1.6-0.8c0.3,0,0.6,0.1,0.9,0.2c0.6,0.2,1,0.8,1.1,1.4H233z M231.9,35.5c0.7,0,1.3-0.6,1.3-1.3
								c0-0.1,0-0.1,0-0.2c0-0.3,0-1.5-1.2-1.5c-0.5,0-1,0.3-1.4,0.7C230.6,34.5,230.9,35.5,231.9,35.5"/>
						</g>
					</g>
				</g>
			</g>
		</g>
		<g id="Mark_5">
			<g>
				<defs>
					<rect id="SVGID_17_" x="197.9" y="18.9" width="24" height="27.9"/>
				</defs>
				<clipPath id="SVGID_18_">
					<use xlink:href="#SVGID_17_"  style="overflow:visible;"/>
				</clipPath>
				<g class="st11">
					<g>
						<defs>
							<rect id="SVGID_19_" x="197.9" y="18.9" width="24" height="27.9"/>
						</defs>
						<clipPath id="SVGID_20_">
							<use xlink:href="#SVGID_19_"  style="overflow:visible;"/>
						</clipPath>
						<g class="st12">
							<path class="st2" d="M214.4,32.8c0,3.5-2,6.4-4.5,6.4s-4.5-2.9-4.5-6.4s2-6.4,4.5-6.4S214.4,29.3,214.4,32.8 M209.9,27.7
								c-1.9,0-3.4,2.3-3.4,5.1s1.5,5.1,3.4,5.1s3.4-2.3,3.4-5.1S211.8,27.7,209.9,27.7"/>
							<path class="st2" d="M208.3,29.5h3.5v0.8H209l-0.2,2c0.4-0.2,0.8-0.4,1.3-0.4c1.1,0,2.1,0.9,2.1,2c0,0,0,0.1,0,0.1
								c0,1.2-0.9,2.2-2,2.2c0,0-0.1,0-0.1,0c-1.1,0-2.1-0.7-2.3-1.8h0.9c0.1,0.7,0.6,1.1,1.3,1.1c0.7,0,1.3-0.6,1.4-1.3
								c0,0,0-0.1,0-0.1c0.1-0.8-0.5-1.5-1.2-1.6c-0.1,0-0.1,0-0.2,0c-0.5,0-0.9,0.2-1.1,0.7L208,33L208.3,29.5z"/>
						</g>
					</g>
				</g>
			</g>
		</g>
		<g id="Mark_4">
			<g>
				<defs>
					<rect id="SVGID_21_" x="175.9" y="18.9" width="24" height="27.9"/>
				</defs>
				<clipPath id="SVGID_22_">
					<use xlink:href="#SVGID_21_"  style="overflow:visible;"/>
				</clipPath>
				<g class="st13">
					<g>
						<defs>
							<rect id="SVGID_23_" x="175.9" y="18.9" width="24" height="27.9"/>
						</defs>
						<clipPath id="SVGID_24_">
							<use xlink:href="#SVGID_23_"  style="overflow:visible;"/>
						</clipPath>
						<g class="st14">
							<path class="st2" d="M192.4,32.8c0,3.5-2,6.4-4.5,6.4s-4.5-2.9-4.5-6.4s2-6.4,4.5-6.4S192.4,29.3,192.4,32.8 M187.9,27.7
								c-1.9,0-3.4,2.3-3.4,5.1s1.5,5.1,3.4,5.1s3.4-2.3,3.4-5.1S189.8,27.7,187.9,27.7"/>
							<path class="st2" d="M188.6,29.6h0.7V34h0.8v0.8h-0.8v1.5h-0.8v-1.5h-3v-0.9L188.6,29.6z M188.5,31l-2.2,3h2.2L188.5,31z"/>
						</g>
					</g>
				</g>
			</g>
		</g>
		<g id="Mark_3">
			<g>
				<defs>
					<rect id="SVGID_25_" x="153.9" y="18.9" width="24" height="27.9"/>
				</defs>
				<clipPath id="SVGID_26_">
					<use xlink:href="#SVGID_25_"  style="overflow:visible;"/>
				</clipPath>
				<g class="st15">
					<g>
						<defs>
							<rect id="SVGID_27_" x="153.9" y="18.9" width="24" height="27.9"/>
						</defs>
						<clipPath id="SVGID_28_">
							<use xlink:href="#SVGID_27_"  style="overflow:visible;"/>
						</clipPath>
						<g class="st16">
							<path class="st2" d="M170.3,32.8c0,3.5-2,6.4-4.5,6.4s-4.5-2.9-4.5-6.4s2-6.4,4.5-6.4S170.3,29.3,170.3,32.8 M165.9,27.7
								c-1.9,0-3.4,2.3-3.4,5.1s1.5,5.1,3.4,5.1s3.4-2.3,3.4-5.1S167.7,27.7,165.9,27.7"/>
							<path class="st2" d="M165,32.3c1.4,0,1.6,0,1.8-0.5c0.1-0.2,0.2-0.4,0.2-0.7c0-0.6-0.4-1-0.9-1.1c0,0-0.1,0-0.1,0
								c-0.5,0-1,0.5-1,1h-0.9c0.1-1,0.9-1.7,1.9-1.7c1-0.1,1.9,0.6,2,1.5c0,0,0,0.1,0,0.1c0,0.7-0.4,1.2-1,1.5
								c0.7,0.3,1.2,1,1.2,1.8c0,1.1-0.9,2-2,2c-0.1,0-0.1,0-0.2,0c-0.6,0-1.1-0.2-1.6-0.5c-0.4-0.4-0.6-0.9-0.7-1.5h1
								c0,0.5,0.3,0.9,0.7,1.1c0.1,0.1,0.3,0.1,0.5,0.1c0.7,0,1.2-0.5,1.2-1.2c0,0,0,0,0-0.1c0-0.6-0.4-1.2-1-1.3
								c-0.1,0-0.2,0-1.2,0L165,32.3z"/>
						</g>
					</g>
				</g>
			</g>
		</g>
		<g id="Mark_2">
			<g>
				<defs>
					<rect id="SVGID_29_" x="131.8" y="18.9" width="24" height="27.9"/>
				</defs>
				<clipPath id="SVGID_30_">
					<use xlink:href="#SVGID_29_"  style="overflow:visible;"/>
				</clipPath>
				<g class="st17">
					<g>
						<defs>
							<rect id="SVGID_31_" x="131.8" y="18.9" width="24" height="27.9"/>
						</defs>
						<clipPath id="SVGID_32_">
							<use xlink:href="#SVGID_31_"  style="overflow:visible;"/>
						</clipPath>
						<g class="st18">
							<path class="st2" d="M148.3,32.8c0,3.5-2,6.4-4.5,6.4s-4.5-2.9-4.5-6.4s2-6.4,4.5-6.4S148.3,29.3,148.3,32.8 M143.8,27.7
								c-1.9,0-3.4,2.3-3.4,5.1s1.6,5.1,3.4,5.1s3.4-2.3,3.4-5.1S145.7,27.7,143.8,27.7"/>
							<path class="st2" d="M141.6,31.6c0-0.6,0.3-1.1,0.7-1.6c0.4-0.4,1-0.6,1.5-0.6c1.1-0.1,2,0.7,2.1,1.7c0,0,0,0.1,0,0.1
								c-0.1,0.9-0.6,1.6-1.3,2.1c-1.4,1.2-1.6,1.3-1.9,2h3.2v0.8h-4.2c0.1-1.1,0.7-2.2,1.7-2.8c1-0.9,1.6-1.4,1.6-2.1
								c0-0.6-0.5-1.1-1.1-1.1c0,0,0,0,0,0c-0.3,0-0.6,0.1-0.9,0.3c-0.3,0.3-0.5,0.7-0.4,1.2L141.6,31.6z"/>
						</g>
					</g>
				</g>
			</g>
		</g>
		<g id="Mark_1">
			<g>
				<defs>
					<rect id="SVGID_33_" x="109.8" y="18.9" width="24" height="27.9"/>
				</defs>
				<clipPath id="SVGID_34_">
					<use xlink:href="#SVGID_33_"  style="overflow:visible;"/>
				</clipPath>
				<g class="st19">
					<g>
						<defs>
							<rect id="SVGID_35_" x="109.8" y="18.9" width="24" height="27.9"/>
						</defs>
						<clipPath id="SVGID_36_">
							<use xlink:href="#SVGID_35_"  style="overflow:visible;"/>
						</clipPath>
						<g class="st20">
							<path class="st2" d="M126.2,32.8c0,3.5-2,6.4-4.5,6.4s-4.5-2.9-4.5-6.4s2-6.4,4.5-6.4S126.2,29.3,126.2,32.8 M121.8,27.7
								c-1.9,0-3.4,2.3-3.4,5.1s1.5,5.1,3.4,5.1s3.4-2.3,3.4-5.1S123.7,27.7,121.8,27.7"/>
							<path class="st2" d="M120.2,30.1c0.5,0,1-0.2,1.3-0.5h0.8v6.6h-0.9v-5.6c-0.4,0.2-0.8,0.3-1.2,0.3L120.2,30.1z"/>
						</g>
					</g>
				</g>
			</g>
		</g>
		<path class="st2" d="M3.5,14.2C1.5,12.6,0,10.7,0,7.7C0.1,5.1,1.3,2.6,3.5,1l0.2,0.2c-0.8,1-1.5,2.1-2,3.3C1.2,5.6,1,6.7,1,7.8
			c0,1.2,0.2,2.3,0.7,3.4c0.5,1.1,1.2,2,2,2.8L3.5,14.2z"/>
		<path class="st2" d="M6.8,6.7c-0.8,1.2-1,1.5-1.5,2.1L5.1,8.6c1.3-2.3,2.3-4.8,2.8-7.5L9,1.6c0.3,0.1,0.4,0.2,0.4,0.3
			S9.3,2.1,8.8,2.2L8.6,2.7c-0.3,0.9-0.4,0.9-0.8,2C8.1,4.8,8.2,4.9,8.2,5S8.1,5.2,7.8,5.4v8.8l-1,0.2L6.8,6.7z M12.4,5.5L12.8,5
			l1,0.6C14,5.8,14,5.8,14,5.9s-0.1,0.2-0.6,0.3c-0.2,1.1-0.6,2.2-1,3.2c-0.6,1.5-1.7,2.8-3,3.7l-0.9,0.6c-0.1,0-0.1,0.1-0.2,0.1
			l-0.2-0.2c0.8-0.6,1.5-1.3,2.1-2.1c0.5-0.6,0.9-1.3,1.2-2c-0.3,0-0.3,0-0.7-0.7C10.5,8.5,10.2,8.2,9.8,8c-0.5,0.7-1,1.3-1.5,1.9
			L8.1,9.7c1.4-1.9,2.3-4.1,2.6-6.5H9L8.8,2.8h4.5L13.8,2l1.4,0.9v0.3h-3.6c-0.1,0.5-0.2,1-0.4,1.5L11,5.5H12.4z M10.8,5.9
			c-0.2,0.6-0.5,1.2-0.8,1.8c0.7,0,1.3,0.4,1.7,1.1c0.4-0.9,0.6-1.9,0.8-2.9L10.8,5.9z M14.3,11V4.1l1.1,0.1c0.1,0,0.4,0,0.4,0.2
			s-0.2,0.2-0.5,0.4v6.1L14.3,11z M16.7,13.1V1.5L18,1.6c0.1,0,0.3,0,0.3,0.2s-0.2,0.2-0.5,0.4l-0.1,11.2c0,0.3-0.3,0.6-0.6,0.7
			l-0.4,0.2c-0.1,0.1-0.2,0.1-0.3,0.1c-0.1,0-0.1,0-0.1-0.1c0,0,0,0,0,0l-0.1-0.5c-0.1-0.1-0.2-0.2-0.4-0.3l-0.9-0.2v-0.3L16.7,13.1
			z"/>
		<path class="st2" d="M19.9,14c1.7-1.7,2.7-4,2.8-6.5c0-2.4-1-4.6-2.7-6.3L20.2,1c1,0.7,1.9,1.7,2.5,2.8c0.6,1.2,1,2.5,1,3.8
			c0,1.7-0.5,3.3-1.6,4.6c-0.6,0.7-1.2,1.4-1.9,2L19.9,14z"/>
		<ellipse class="st21" cx="166" cy="32.8" rx="4.1" ry="6"/>
	</g>
</g>
</svg>
