<svg xmlns="http://www.w3.org/2000/svg" xmlns:xlink="http://www.w3.org/1999/xlink" viewBox="0 0 298.71 79.25"><defs><style>.cls-1,.cls-3{fill:none;}.cls-2{fill:#fff;}.cls-2,.cls-3{stroke:#211815;stroke-miterlimit:10;}.cls-3{stroke-width:0.5px;}.cls-14,.cls-15,.cls-4{fill:#211815;}.cls-5{clip-path:url(#clip-path);}.cls-6{clip-path:url(#clip-path-3);}.cls-7{clip-path:url(#clip-path-5);}.cls-8{clip-path:url(#clip-path-7);}.cls-9{clip-path:url(#clip-path-9);}.cls-10{clip-path:url(#clip-path-11);}.cls-11{clip-path:url(#clip-path-13);}.cls-12{clip-path:url(#clip-path-15);}.cls-13{clip-path:url(#clip-path-17);}.cls-14{font-size:34.47px;font-family:MiGoMB1Std-DeBold-83pv-RKSJ-H, A-OTF Midashi Go MB1 Std;}.cls-15{opacity:0.64;}</style><clipPath id="clip-path"><rect class="cls-1" x="268.85" y="54.72" width="24.02" height="27.87"/></clipPath><clipPath id="clip-path-3"><rect class="cls-1" x="246.81" y="54.72" width="24.02" height="27.87"/></clipPath><clipPath id="clip-path-5"><rect class="cls-1" x="224.77" y="54.72" width="24.02" height="27.87"/></clipPath><clipPath id="clip-path-7"><rect class="cls-1" x="202.73" y="54.72" width="24.02" height="27.87"/></clipPath><clipPath id="clip-path-9"><rect class="cls-1" x="180.69" y="54.72" width="24.02" height="27.87"/></clipPath><clipPath id="clip-path-11"><rect class="cls-1" x="158.65" y="54.72" width="24.02" height="27.87"/></clipPath><clipPath id="clip-path-13"><rect class="cls-1" x="136.62" y="54.72" width="24.02" height="27.87"/></clipPath><clipPath id="clip-path-15"><rect class="cls-1" x="114.58" y="54.72" width="24.02" height="27.87"/></clipPath><clipPath id="clip-path-17"><rect class="cls-1" x="92.54" y="54.72" width="24.02" height="27.87"/></clipPath></defs><g id="レイヤー_2" data-name="レイヤー 2"><g id="レイヤー_1-2" data-name="レイヤー 1"><rect class="cls-2" x="46.71" y="57.64" width="251.51" height="21.11"/><rect class="cls-2" x="86.34" y="21.82" width="211.87" height="35.81"/><rect class="cls-3" x="86.34" y="21.82" width="211.87" height="56.93"/><rect class="cls-3" x="86.34" y="41.15" width="211.87" height="16.48"/><path class="cls-4" d="M154.18,27c-.12.24-.26.56-.41.81h1.32l.15-.06.67.66c-.28.36-.37.48-1,1.38h1.53v.42a2.82,2.82,0,0,0,1.61-2.12h-1.39v-.9h5a11.9,11.9,0,0,1-.22,2.81c-.18.33-.48.46-1.49.67a4.91,4.91,0,0,0-.4-1.08h.7c.23-.05.25-.09.27-.19a6.29,6.29,0,0,0,.09-1.31H159.1A3.53,3.53,0,0,1,157,31a2.23,2.23,0,0,0-.56-.71V36.5c-.08.89-.32,1-1.65,1.29a3.41,3.41,0,0,0-.48-1.16h.92c.14,0,.18-.07.18-.22V34.79h-2.51a5.84,5.84,0,0,1-1.05,3,2.41,2.41,0,0,0-.66-.86c.86-1.85.86-2.4.84-6.47l-.39.43A3.91,3.91,0,0,0,151,30a10.5,10.5,0,0,0,2.18-3.29Zm-.32,2.79c.25-.38.48-.77.68-1.13h-1.21c-.24.39-.51.77-.77,1.13Zm0,2.78H153l0,1.29h.83Zm0-2H153V31.7h.82Zm1.62,0h-.77V31.7h.77Zm0,2h-.77v1.29h.77Zm3.45-1.75H160V32h1.68v.86H160v1.18h2.11V35H160v2.6h-1.11V35h-2.18v-.9h2.18V32.89H158l-.4.72c-.29-.15-.54-.31-.91-.48a8.23,8.23,0,0,0,.95-2.22l1,.37-.25.75h.58Z"/><path class="cls-4" d="M190.1,27.1a6,6,0,0,1-.35.65h2.46v.87h-1.32c.17.28.31.55.49.9l-1,.41a9.63,9.63,0,0,0-.6-1.31h-.62a9.69,9.69,0,0,1-1.34,1.6,5.48,5.48,0,0,0-.74-.82,11.93,11.93,0,0,0,2-2.68Zm4.34,0a5.13,5.13,0,0,1-.29.68h3.73v.87h-2.22c.2.3.36.63.56,1l-.95.47a15.62,15.62,0,0,0-.75-1.47h-.81a10.18,10.18,0,0,1-.81,1.15l.49,0-.14.18a12.47,12.47,0,0,0,5,2.4,4.31,4.31,0,0,0-.54,1.07,13.14,13.14,0,0,1-2.56-1.07v.68h-5.26v-.53a14.19,14.19,0,0,1-2.07,1.12,4.46,4.46,0,0,0-.64-1,12.25,12.25,0,0,0,4.77-3.06l.85.11a1.91,1.91,0,0,0-.74-.55,9.8,9.8,0,0,0,1.42-2.48Zm-5.64,6.78h7.47v3.73h-1.11v-.44h-5.24v.48H188.8Zm6.36.94h-5.24V36.2h5.24Zm-.58-2.65a9.9,9.9,0,0,1-2.05-1.52,24.68,24.68,0,0,1-2,1.52Z"/><path class="cls-4" d="M224.48,26.91h1v2.36h.79v1.06h-.79v.85a7,7,0,0,0,1,.9,4.48,4.48,0,0,0-.49,1c-.17-.15-.32-.32-.51-.5v5.1h-1V33a13.1,13.1,0,0,1-1,1.8,4.31,4.31,0,0,0-.48-1.22,10.56,10.56,0,0,0,1.39-3.2h-1.12V29.27h1.2Zm2.12.21h2.94v3.36h-2v7.17h-.92Zm2.06.84h-1.14v.59h1.14Zm0,1.24h-1.14v.57h1.14Zm.88,1.54h.89v.42h1.78v.65h-1.78v.46h1.67v2.42h-1.67V35a5.44,5.44,0,0,0,1.42.62,6.12,6.12,0,0,0-.42.78,4.59,4.59,0,0,1-1-.47V37.2h-.89V35.67a9.19,9.19,0,0,1-1.18,1,4,4,0,0,0-.67-.7,7,7,0,0,0,1.68-1.33h-1.26V32.27h1.43v-.46h-1.7v-.65h1.7Zm0,2h-.64v.48h.64Zm0,.9h-.64v.51h.64Zm.83-6.54h3.23v9.49c0,.6-.2.76-1.53,1.08a4.28,4.28,0,0,0-.44-1.16h.8c.11,0,.15-.08.15-.17V30.48h-2.21Zm.88,5.64h-.82v.48h.82Zm0,.9h-.82v.51h.82Zm1.33-5.7h-1.33v.59h1.33Zm0,1.24h-1.33v.57h1.33Z"/><path class="cls-4" d="M103.84,47.76a1.41,1.41,0,0,0,1.18-.48h.66V53.1h-.77V48.16a2.61,2.61,0,0,1-1.07.3Z"/><path class="cls-4" d="M125.27,49.13a2.3,2.3,0,0,1,.57-1.38,1.88,1.88,0,0,1,1.33-.52A1.67,1.67,0,0,1,129,48.86a2.37,2.37,0,0,1-1.12,1.85c-1.25,1-1.42,1.16-1.61,1.76H129v.67h-3.69a3.29,3.29,0,0,1,1.46-2.46c.9-.8,1.38-1.21,1.38-1.85a1,1,0,0,0-1-1,1.13,1.13,0,0,0-.77.26,1.28,1.28,0,0,0-.35,1Z"/><path class="cls-4" d="M148.23,49.76c1.24,0,1.36,0,1.58-.4a1.21,1.21,0,0,0,.19-.61.89.89,0,0,0-.93-.94.92.92,0,0,0-.87.9h-.75a1.57,1.57,0,0,1,1.65-1.47,1.55,1.55,0,0,1,1.73,1.46A1.38,1.38,0,0,1,150,50a1.61,1.61,0,0,1,1,1.54,1.78,1.78,0,0,1-1.85,1.71,2.12,2.12,0,0,1-1.35-.47,2.15,2.15,0,0,1-.59-1.28h.86a1.07,1.07,0,0,0,1,1.07,1.06,1.06,0,0,0,1.07-1.1,1.1,1.1,0,0,0-.86-1.13c-.11,0-.22,0-1.09,0Z"/><path class="cls-4" d="M171.72,47.32h.6v3.89H173v.67h-.72v1.29h-.73V51.88H169v-.81Zm-.13,1.29-1.9,2.6h1.9Z"/><path class="cls-4" d="M191.53,47.29h3V48h-2.4L192,49.74a2,2,0,0,1,1.11-.33,1.8,1.8,0,0,1,1.8,1.9,1.86,1.86,0,0,1-1.91,2,1.93,1.93,0,0,1-2-1.62h.82c.21.93.82,1,1.09,1a1.19,1.19,0,0,0,1.18-1.27A1.23,1.23,0,0,0,192.89,50a1.1,1.1,0,0,0-1,.58l-.67-.26Z"/><path class="cls-4" d="M215.9,48.58a.81.81,0,0,0-.81-.77c-1.13,0-1.24,1.49-1.28,2.08a2,2,0,0,1,1.32-.51,1.64,1.64,0,0,1,1.66,1.83,1.81,1.81,0,0,1-1.81,2,1.76,1.76,0,0,1-1.52-.82,4.25,4.25,0,0,1-.43-2.19,3.71,3.71,0,0,1,.59-2.33,1.85,1.85,0,0,1,1.44-.74,2.08,2.08,0,0,1,.77.16,1.64,1.64,0,0,1,.95,1.26Zm-1,4A1.11,1.11,0,0,0,216,51.31c0-.25,0-1.28-1-1.28a1.5,1.5,0,0,0-1.18.64C213.81,51.66,214.07,52.58,215,52.58Z"/><path class="cls-4" d="M235,47.36h3.64v.69a7.36,7.36,0,0,0-1.86,5H236a8.36,8.36,0,0,1,1.81-5H235Z"/><path class="cls-4" d="M260.82,51.68c0,1-.76,1.61-2.06,1.61-1,0-2-.48-2-1.62A2,2,0,0,1,258,50a1.53,1.53,0,0,1-1-1.38,1.83,1.83,0,0,1,3.57,0,1.53,1.53,0,0,1-1,1.35C260.28,50.45,260.82,50.88,260.82,51.68Zm-.77,0c0-.62-.69-1-1.35-1.31-.71.39-1.22.7-1.22,1.35s.62.92,1.26.92S260.05,52.32,260.05,51.67Zm-2-3.59a.75.75,0,0,0-.28.61c0,.65.78,1,1.09,1.05.45-.21.91-.56.91-1.07a.88.88,0,0,0-.17-.5,1,1,0,0,0-.9-.37A1.54,1.54,0,0,0,258,48.08Z"/><path class="cls-4" d="M279.72,51.83a.87.87,0,0,0,.87.76,1,1,0,0,0,.79-.42,3.12,3.12,0,0,0,.41-1.68,1.73,1.73,0,0,1-1.29.56,1.71,1.71,0,0,1-1.68-1.81,1.87,1.87,0,0,1,1.85-2.05,1.76,1.76,0,0,1,1.56.91,4.46,4.46,0,0,1,.34,1.94c0,1.41-.26,3.17-2,3.17a1.83,1.83,0,0,1-1-.3,1.74,1.74,0,0,1-.66-1.08Zm.9-1.44a1.14,1.14,0,0,0,1-.44,1.29,1.29,0,0,0,.22-.46,1.79,1.79,0,0,0-.53-1.44,1.1,1.1,0,0,0-.64-.23c-.29,0-1.06.26-1.06,1.37A1,1,0,0,0,280.62,50.39Z"/><path class="cls-4" d="M64.53,65.33a2.34,2.34,0,0,0,1.9-.75H67.5v9.2H66.26V66a4.09,4.09,0,0,1-1.73.47Z"/><g id="Mark_9" data-name="Mark 9"><g class="cls-5"><g class="cls-5"><path class="cls-4" d="M285.32,68.65c0,3.53-2,6.39-4.46,6.39s-4.47-2.86-4.47-6.39,2-6.39,4.47-6.39,4.46,2.87,4.46,6.39m-4.46-5.09c-1.88,0-3.4,2.3-3.4,5.14s1.52,5.15,3.4,5.15,3.39-2.31,3.39-5.15-1.52-5.14-3.39-5.14"/><path class="cls-4" d="M279.73,70.52a1,1,0,0,0,1,.86,1.13,1.13,0,0,0,.91-.47,3.57,3.57,0,0,0,.47-1.91,2,2,0,0,1-1.48.64,2,2,0,0,1-1.94-2,2.12,2.12,0,0,1,2.12-2.32,2.07,2.07,0,0,1,1.81,1,5.07,5.07,0,0,1,.38,2.2c0,1.58-.29,3.58-2.33,3.58a2,2,0,0,1-1.18-.34,2,2,0,0,1-.77-1.22Zm1-1.63a1.36,1.36,0,0,0,1.11-.5,1.53,1.53,0,0,0,.25-.52,2,2,0,0,0-.61-1.62,1.25,1.25,0,0,0-.74-.27,1.36,1.36,0,0,0-1.22,1.55,1.16,1.16,0,0,0,1.21,1.36"/></g></g></g><g id="_8" data-name="8"><g class="cls-6"><g class="cls-6"><path class="cls-4" d="M263.28,68.65c0,3.53-2,6.39-4.46,6.39s-4.47-2.86-4.47-6.39,2-6.39,4.47-6.39,4.46,2.87,4.46,6.39m-4.46-5.09c-1.88,0-3.4,2.3-3.4,5.14s1.52,5.15,3.4,5.15,3.39-2.31,3.39-5.15-1.52-5.14-3.39-5.14"/><path class="cls-4" d="M261.17,70.36c0,1.11-.87,1.81-2.37,1.81-1.12,0-2.32-.55-2.32-1.83,0-1,.89-1.54,1.41-1.85a1.74,1.74,0,0,1-1.18-1.57c0-1.06,1-1.62,2-1.62s2.06.55,2.06,1.66a1.75,1.75,0,0,1-1.19,1.53c.93.47,1.55,1,1.55,1.87m-.88,0c0-.7-.8-1.13-1.55-1.48-.83.44-1.41.79-1.41,1.52s.71,1,1.44,1,1.52-.35,1.52-1.08m-2.36-4.07a.88.88,0,0,0-.31.7c0,.73.89,1.07,1.25,1.19.52-.24,1-.64,1-1.21a1,1,0,0,0-.18-.57,1.26,1.26,0,0,0-1.05-.42,1.81,1.81,0,0,0-.75.31"/></g></g></g><g id="Mark_7" data-name="Mark 7"><g class="cls-7"><g class="cls-7"><path class="cls-4" d="M241.24,68.65c0,3.53-2,6.39-4.46,6.39s-4.47-2.86-4.47-6.39,2-6.39,4.47-6.39,4.46,2.87,4.46,6.39m-4.46-5.09c-1.87,0-3.39,2.3-3.39,5.14s1.52,5.15,3.39,5.15,3.39-2.31,3.39-5.15-1.52-5.14-3.39-5.14"/><path class="cls-4" d="M234.83,65.46H239v.79a8.25,8.25,0,0,0-2.14,5.69h-1A9.44,9.44,0,0,1,238,66.27h-3.16Z"/></g></g></g><g id="Mark_6" data-name="Mark 6"><g class="cls-8"><g class="cls-8"><path class="cls-4" d="M219.2,68.65c0,3.53-2,6.39-4.46,6.39s-4.46-2.86-4.46-6.39,2-6.39,4.46-6.39,4.46,2.87,4.46,6.39m-4.46-5.09c-1.87,0-3.39,2.3-3.39,5.14s1.52,5.15,3.39,5.15,3.39-2.31,3.39-5.15-1.52-5.14-3.39-5.14"/><path class="cls-4" d="M215.75,66.84a.9.9,0,0,0-.93-.86c-1.3,0-1.43,1.68-1.48,2.35a2.28,2.28,0,0,1,1.53-.58,1.87,1.87,0,0,1,1.91,2.06A2.1,2.1,0,0,1,213,71.19a4.62,4.62,0,0,1-.5-2.48,4.16,4.16,0,0,1,.68-2.63,2.14,2.14,0,0,1,1.65-.84,2.32,2.32,0,0,1,.89.18,1.8,1.8,0,0,1,1.09,1.42Zm-1.09,4.52a1.25,1.25,0,0,0,1.24-1.42c0-.29,0-1.45-1.19-1.45a1.73,1.73,0,0,0-1.37.72c0,1.12.31,2.15,1.32,2.15"/></g></g></g><g id="Mark_5" data-name="Mark 5"><g class="cls-9"><g class="cls-9"><path class="cls-4" d="M197.17,68.65c0,3.53-2,6.39-4.47,6.39s-4.46-2.86-4.46-6.39,2-6.39,4.46-6.39,4.47,2.87,4.47,6.39m-4.47-5.09c-1.87,0-3.39,2.3-3.39,5.14s1.52,5.15,3.39,5.15,3.39-2.31,3.39-5.15-1.51-5.14-3.39-5.14"/><path class="cls-4" d="M191.08,65.39h3.46v.77h-2.75l-.2,2a2.23,2.23,0,0,1,1.27-.37,2,2,0,0,1,2.07,2.15,2.12,2.12,0,0,1-2.19,2.21,2.21,2.21,0,0,1-2.27-1.83h.94a1.25,1.25,0,0,0,1.26,1.13A1.36,1.36,0,0,0,194,70a1.4,1.4,0,0,0-1.39-1.56,1.26,1.26,0,0,0-1.14.65l-.78-.29Z"/></g></g></g><g id="Mark_4" data-name="Mark 4"><g class="cls-10"><g class="cls-10"><path class="cls-4" d="M175.13,68.65c0,3.53-2,6.39-4.47,6.39s-4.46-2.86-4.46-6.39,2-6.39,4.46-6.39,4.47,2.87,4.47,6.39m-4.47-5.09c-1.87,0-3.39,2.3-3.39,5.14s1.52,5.15,3.39,5.15,3.4-2.31,3.4-5.15-1.52-5.14-3.4-5.14"/><path class="cls-4" d="M171.41,65.41h.69v4.41h.83v.76h-.83V72h-.83V70.58h-3v-.93Zm-.14,1.46-2.19,2.95h2.19Z"/></g></g></g><g id="Mark_3" data-name="Mark 3"><g class="cls-11"><g class="cls-11"><path class="cls-4" d="M153.09,68.65c0,3.53-2,6.39-4.47,6.39s-4.46-2.86-4.46-6.39,2-6.39,4.46-6.39,4.47,2.87,4.47,6.39m-4.47-5.09c-1.87,0-3.39,2.3-3.39,5.14s1.52,5.15,3.39,5.15,3.4-2.31,3.4-5.15-1.52-5.14-3.4-5.14"/><path class="cls-4" d="M147.71,68.18c1.43,0,1.57-.05,1.82-.45a1.36,1.36,0,0,0,.22-.69A1,1,0,0,0,148.68,66a1,1,0,0,0-1,1h-.87a1.82,1.82,0,0,1,1.91-1.67,1.78,1.78,0,0,1,2,1.66,1.57,1.57,0,0,1-1,1.49,1.83,1.83,0,0,1,1.18,1.75,2,2,0,0,1-2.12,1.93,2.51,2.51,0,0,1-1.55-.53,2.46,2.46,0,0,1-.68-1.45h1a1.2,1.2,0,0,0,.75,1.11,1.17,1.17,0,0,0,.46.1A1.2,1.2,0,0,0,150,70.13a1.23,1.23,0,0,0-1-1.27,9.16,9.16,0,0,0-1.25,0Z"/></g></g></g><g id="Mark_2" data-name="Mark 2"><g class="cls-12"><g class="cls-12"><path class="cls-4" d="M131.05,68.65c0,3.53-2,6.39-4.46,6.39s-4.47-2.86-4.47-6.39,2-6.39,4.47-6.39,4.46,2.87,4.46,6.39m-4.46-5.09c-1.88,0-3.4,2.3-3.4,5.14s1.52,5.15,3.4,5.15S130,71.54,130,68.7s-1.52-5.14-3.39-5.14"/><path class="cls-4" d="M124.3,67.46A2.58,2.58,0,0,1,125,65.9a2.23,2.23,0,0,1,1.52-.59,1.92,1.92,0,0,1,2.09,1.85,2.67,2.67,0,0,1-1.3,2.09c-1.44,1.16-1.63,1.32-1.85,2h3.22V72H124.4a3.68,3.68,0,0,1,1.68-2.78c1-.9,1.59-1.37,1.59-2.1A1.1,1.1,0,0,0,126.55,66a1.24,1.24,0,0,0-.88.29,1.44,1.44,0,0,0-.4,1.17Z"/></g></g></g><g id="Mark_1" data-name="Mark 1"><g class="cls-13"><g class="cls-13"><path class="cls-4" d="M109,68.65c0,3.53-2,6.39-4.46,6.39s-4.47-2.86-4.47-6.39,2-6.39,4.47-6.39S109,65.13,109,68.65m-4.46-5.09c-1.88,0-3.4,2.3-3.4,5.14s1.52,5.15,3.4,5.15,3.39-2.31,3.39-5.15-1.52-5.14-3.39-5.14"/><path class="cls-4" d="M103,65.92a1.67,1.67,0,0,0,1.36-.54h.76V72h-.88V66.37a2.89,2.89,0,0,1-1.24.33Z"/></g></g></g><rect class="cls-2" x="36.59" y="0.51" width="44.15" height="50.3"/><text class="cls-14" transform="translate(50.78 38.11) scale(0.86 1)">2</text><path class="cls-4" d="M3.47,13.27C1.45,11.65,0,9.77,0,6.77A8.68,8.68,0,0,1,3.48,0L3.7.24a11.76,11.76,0,0,0-2,3.29A8.15,8.15,0,0,0,1,6.84a7.77,7.77,0,0,0,.7,3.37,10,10,0,0,0,2,2.82Z"/><path class="cls-4" d="M6.82,5.74c-.77,1.19-1,1.46-1.47,2.1l-.21-.18A23.69,23.69,0,0,0,7.91.19L9,.62c.32.12.4.18.4.33s-.06.17-.65.3l-.2.54c-.34.9-.35.93-.81,2,.31.09.49.15.49.3s-.15.21-.47.34v8.81l-1,.16ZM12.4,4.57,12.78,4l1,.64c.18.12.19.19.19.27s-.07.16-.59.3a20.91,20.91,0,0,1-1,3.24,8.93,8.93,0,0,1-3,3.73l-.9.61-.17.14-.18-.24a11.66,11.66,0,0,0,2.12-2.1,7.55,7.55,0,0,0,1.19-2c-.31,0-.34,0-.72-.68A2.09,2.09,0,0,0,9.81,7,19.94,19.94,0,0,1,8.29,9l-.18-.23a13.79,13.79,0,0,0,2.55-6.47H9l-.17-.42h4.5l.52-.78L15.21,2v.31h-3.6a12.51,12.51,0,0,1-.37,1.47L11,4.57ZM10.85,5A9.65,9.65,0,0,1,10,6.8a2,2,0,0,1,1.67,1.07A12.23,12.23,0,0,0,12.43,5Zm3.49,5.11V3.2l1.09.07c.14,0,.39,0,.39.24s-.16.24-.51.37l0,6.07Zm2.39,2.08V.55L18,.67c.15,0,.31,0,.31.21s-.18.24-.54.37L17.67,12.5c0,.28-.3.55-.56.68l-.41.19a.64.64,0,0,1-.31.11.13.13,0,0,1-.14-.12l-.13-.46a.68.68,0,0,0-.4-.3l-.94-.18v-.25Z"/><path class="cls-4" d="M19.91,13.08a9.47,9.47,0,0,0,2.81-6.49A8.87,8.87,0,0,0,20,.3l.2-.27a8.6,8.6,0,0,1,2.55,2.83,8.15,8.15,0,0,1,1,3.85,7.46,7.46,0,0,1-1.58,4.63,11.07,11.07,0,0,1-1.94,2Z"/><ellipse class="cls-15" cx="148.89" cy="68.71" rx="4.2" ry="6.33"/></g></g></svg>